<?xml version="1.0" encoding="UTF-8"?>
<svg version="1.1" xmlns="http://www.w3.org/2000/svg" width="512" height="512">
<path d="M0 0 C1.27297764 -0.00644889 2.54595528 -0.01289778 3.857508 -0.0195421 C5.2678963 -0.0165999 6.6782842 -0.01346447 8.08867168 -0.01015663 C9.58871508 -0.01389314 11.08875653 -0.01849466 12.58879489 -0.02388728 C16.71224841 -0.03613267 20.83562089 -0.035855 24.95908844 -0.03349853 C29.4056973 -0.03309075 33.85228004 -0.04412577 38.29887676 -0.05361366 C47.01118714 -0.07023308 55.72347045 -0.07572363 64.43579534 -0.07683842 C71.51703848 -0.07778845 78.59827267 -0.08189648 85.67951298 -0.08823967 C105.75231181 -0.10585465 125.82508924 -0.11507814 145.89789585 -0.11357872 C146.98023344 -0.11349881 148.06257102 -0.1134189 149.17770672 -0.11333656 C150.2613645 -0.1132548 151.34502229 -0.11317304 152.46151819 -0.1130888 C170.02538502 -0.11227583 187.58916611 -0.13141568 205.15300814 -0.1596133 C223.18368905 -0.18833218 241.21432812 -0.20215414 259.24503249 -0.20042574 C269.36940995 -0.1997615 279.49369752 -0.20526893 289.61805439 -0.22678185 C298.23799065 -0.24498054 306.85779628 -0.24935177 315.47774342 -0.235763 C319.87571442 -0.22922672 324.27343471 -0.22913989 328.67138195 -0.2464695 C332.69889183 -0.26217621 336.72595173 -0.25936139 340.75345048 -0.24190123 C342.20902119 -0.23882602 343.66462528 -0.24248342 345.12015662 -0.25362138 C354.21974571 -0.3186312 360.3587484 0.18794657 367.74582195 5.79242516 C372.17396393 10.79648155 373.73017325 15.59346939 373.72238445 22.25726891 C373.00632 25.54144859 373.00632 25.54144859 371.8591032 29.30414391 C371.64023449 30.02292717 371.42136578 30.74171043 371.19586468 31.48227501 C367.55214985 43.25995281 363.51911546 54.91684535 359.54406261 66.58581352 C358.83646648 68.66433989 358.13030279 70.74334764 357.42459393 72.82251549 C351.6204234 89.92222442 345.74903359 106.99625003 339.75345135 124.02991295 C333.03007352 143.15487327 326.58820927 162.37483382 320.12106228 181.58749962 C304.17216627 228.96807529 304.17216627 228.96807529 296.78488445 250.13226891 C296.48968914 250.98014977 296.19449383 251.82803062 295.8903532 252.70160484 C286.16927374 280.58867411 286.16927374 280.58867411 276.27463055 285.40595055 C270.91293312 287.19437975 265.25453689 286.82364056 259.65988445 286.78851891 C258.30042526 286.7912193 256.94096796 286.79510626 255.58151531 286.80011559 C252.74384299 286.80598509 249.90667718 286.79753141 247.06906414 286.77875328 C243.45107477 286.75596408 239.83427264 286.76910109 236.21632671 286.79304314 C233.41252144 286.80757109 230.60899273 286.80286349 227.80517864 286.79253197 C225.82892355 286.78860638 223.85265724 286.80064888 221.87643719 286.81305504 C213.6665229 286.72784703 208.29839059 285.80853235 201.69894695 280.68695641 C197.58423033 275.95384307 195.94862031 271.52618946 195.72238445 265.25726891 C197.15944511 256.89235791 200.10683813 248.83277379 202.94113445 240.85883141 C203.3512376 239.69115227 203.76134075 238.52347313 204.18387127 237.32040977 C205.29395641 234.16289838 206.40875528 231.00713119 207.52577496 227.85207176 C208.70756066 224.51033602 209.88311276 221.16640852 211.05929852 217.82269859 C212.99790674 212.31378094 214.9399527 206.80608717 216.88449383 201.29926109 C219.50996308 193.86346109 222.12564426 186.42424584 224.73800945 178.98383141 C235.01427063 149.72327647 245.35440613 120.48543816 255.72238445 91.25726891 C254.75043133 91.25140266 253.7784782 91.24553642 252.77707195 91.23949242 C243.59652966 91.18216401 234.41622193 91.10934978 225.235919 91.02155399 C220.51674402 90.97691502 215.79765409 90.93764473 211.07834148 90.91083336 C206.51997716 90.88473568 201.96194124 90.84428784 197.40378094 90.79408264 C195.6687966 90.77745754 193.93375551 90.76591622 192.19870281 90.759655 C189.75963574 90.74996619 187.32140059 90.72185136 184.8825407 90.68964195 C184.17259457 90.69107704 183.46264843 90.69251213 182.73118877 90.69399071 C177.44301788 90.59586677 173.52743354 89.28527609 168.72238445 87.25726891 C168.45772381 88.54326988 168.19306316 89.82927086 167.9203825 91.15424156 C166.79610907 96.19966838 165.24133395 101.02408852 163.5544157 105.90570641 C163.24353008 106.81739082 162.93264446 107.72907524 162.61233807 108.66838646 C161.59129931 111.6580067 160.56319558 114.64514306 159.53488445 117.63226891 C158.80533951 119.7632708 158.0760966 121.89437612 157.34714031 124.02557945 C152.59874375 137.88839776 147.77150325 151.72292677 142.91421795 165.5478878 C138.32792367 178.61523143 133.85967345 191.72101472 129.43332195 204.84320641 C129.15613512 205.66479681 128.87894829 206.48638721 128.59336185 207.3328743 C125.78499736 215.65856452 122.98095478 223.98569287 120.18533611 232.31567192 C119.12678544 235.46831675 118.06612077 238.62024816 117.00513363 241.77207375 C116.51240107 243.23768096 116.02067195 244.70362602 115.53008938 246.1699543 C113.95565322 250.87570863 112.35162802 255.57022188 110.72238445 260.25726891 C110.47754944 260.96970882 110.23271442 261.68214874 109.98046017 262.41617775 C109.23089992 264.58178338 108.46276809 266.73994854 107.68942547 268.89716148 C107.46649035 269.54746425 107.24355524 270.19776701 107.01386452 270.86777592 C104.64715019 277.34386374 101.02157408 282.18843293 94.72238445 285.25726891 C91.38597552 286.31356032 88.28460274 286.39572735 84.79562664 286.41840172 C83.60048443 286.42800926 82.40534222 286.43761681 81.17398357 286.44751549 C79.88542461 286.45176537 78.59686565 286.45601524 77.26925945 286.46039391 C76.60992664 286.46322128 75.95059383 286.46604866 75.27128124 286.46896172 C71.78020613 286.48393023 68.28917207 286.49317365 64.79806805 286.49750328 C61.209353 286.50297589 57.62101967 286.5269845 54.03242397 286.55547523 C51.25785544 286.57419427 48.48337704 286.57931217 45.70875072 286.58083916 C43.74797947 286.58530013 41.78725665 286.60390263 39.82657146 286.62280846 C32.38756931 286.60432354 25.71862123 286.51289037 19.69894695 281.60883141 C19.02992352 280.75418297 19.02992352 280.75418297 18.34738445 279.88226891 C17.88590008 279.31765953 17.4244157 278.75305016 16.94894695 278.17133141 C13.25380593 272.40502853 13.10084417 266.91749892 13.72238445 260.25726891 C14.54586171 256.55368771 15.75929458 253.05537372 17.0622282 249.49555016 C17.41513927 248.48852547 17.76805035 247.48150078 18.13165569 246.44396019 C19.2916138 243.14661039 20.47557855 239.85844352 21.65988445 236.56976891 C22.48655603 234.23438219 23.31164435 231.8984345 24.13522625 229.56195641 C26.24467441 223.58928673 28.37334287 217.62366818 30.50717449 211.65967369 C32.33802124 206.53357867 34.15195103 201.40155008 35.96457195 196.26898766 C38.00012673 190.50792338 40.03722122 184.74743966 42.08420086 178.9904232 C46.1947911 167.42681611 50.27071436 155.85161449 54.31613445 144.26508141 C54.7963727 142.89010118 55.27661257 141.51512153 55.75685406 140.14014244 C57.8733876 134.07911755 59.9882785 128.01753055 62.09815693 121.95418549 C63.17568152 118.85932707 64.2559761 115.76543507 65.3356657 112.67133141 C65.91272259 111.00881844 65.91272259 111.00881844 66.50143719 109.31271935 C68.74536343 102.8896534 71.13253781 96.54906603 73.72238445 90.25726891 C72.73790325 90.26615135 71.75342205 90.2750338 70.73910809 90.28418541 C61.4410621 90.36542937 52.14308856 90.42531003 42.84476757 90.46451759 C38.06488989 90.48535262 33.28529978 90.5135953 28.50558758 90.55902672 C23.88901745 90.60263062 19.27272318 90.62643672 14.65596294 90.63677788 C12.89856407 90.64414322 11.14117952 90.65852596 9.38389874 90.68018913 C6.91371851 90.70941728 4.44466412 90.71321694 1.97433758 90.71137047 C1.2550407 90.72575157 0.53574383 90.74013268 -0.20534992 90.75494957 C-6.45666112 90.70470497 -11.48863309 88.56706326 -16.30105305 84.58148766 C-16.97007648 83.77131187 -16.97007648 83.77131187 -17.65261555 82.94476891 C-18.34484211 82.14619469 -18.34484211 82.14619469 -19.05105305 81.33148766 C-22.96125342 74.71901505 -22.58447383 67.52425806 -22.5783968 60.07758141 C-22.58268192 58.91024467 -22.58696705 57.74290794 -22.59138203 56.54019737 C-22.59711003 54.07756764 -22.5976369 51.61492099 -22.59328938 49.15228844 C-22.59013201 45.40182941 -22.61360007 41.65216167 -22.63894367 37.90180016 C-22.6412172 35.50206156 -22.64191992 33.10232086 -22.6408968 30.70258141 C-22.65010654 29.58980827 -22.65931629 28.47703514 -22.66880512 27.33054161 C-22.62546589 19.97015948 -22.15073425 12.85768335 -17.41042805 6.91742516 C-16.74784992 6.39019859 -16.0852718 5.86297203 -15.40261555 5.31976891 C-14.74519367 4.77449547 -14.0877718 4.22922203 -13.41042805 3.66742516 C-8.98931464 0.74430805 -5.26728726 0.0067492 0 0 Z M-1.27761555 21.25726891 C-1.27761555 37.09726891 -1.27761555 52.93726891 -1.27761555 69.25726891 C33.37238445 69.25726891 68.02238445 69.25726891 103.72238445 69.25726891 C101.74238445 74.53726891 99.76238445 79.81726891 97.72238445 85.25726891 C96.27675886 89.29737428 94.84215221 93.33866523 93.4294157 97.39008141 C93.04593472 98.4849688 92.66245373 99.57985619 92.2673521 100.70792198 C91.44755858 103.04913478 90.62854869 105.39062211 89.81027508 107.73236656 C88.49999884 111.48210426 87.1877301 115.23114129 85.8747282 118.97992516 C85.42212125 120.27222226 84.96951506 121.56451962 84.5169096 122.85681725 C84.29145836 123.50052017 84.06600712 124.1442231 83.83372402 124.80743217 C83.1461008 126.77097785 82.45870521 128.73460309 81.77136517 130.69824791 C77.65479101 142.45771566 73.5207471 154.21100739 69.38241863 165.96283531 C62.61951951 185.16909876 55.8635782 204.37781535 49.1169157 223.58978844 C48.23958561 226.08798938 47.36172773 228.58600292 46.48361492 231.08392906 C45.26150107 234.56065665 44.04062066 238.03781506 42.8200407 241.51508141 C42.46357967 242.52837517 42.10711864 243.54166893 41.73985577 244.58566856 C39.3303815 251.45574134 37.02531741 258.34847004 34.72238445 265.25726891 C51.55238445 265.25726891 68.38238445 265.25726891 85.72238445 265.25726891 C89.8336277 255.44189127 89.8336277 255.44189127 93.43869305 245.50897789 C93.66926151 244.82429687 93.89982998 244.13961586 94.13738537 243.43418694 C94.88585878 241.20856327 95.62832141 238.98098523 96.37082195 236.75336266 C96.90473796 235.16276701 97.4391012 233.57232144 97.97387981 231.98201561 C99.1018454 228.62562099 100.22743843 225.26844505 101.35104656 221.91058922 C104.29471388 213.11495471 107.25484776 204.3248542 110.21457195 195.53461266 C110.50485523 194.67207752 110.79513851 193.80954239 111.09421825 192.92086983 C115.38651371 180.16970071 119.74381363 167.44436889 124.22238445 154.75726891 C132.19811884 132.14179759 139.81278678 109.40307753 147.46132183 86.67539978 C148.53820779 83.47552169 149.61555205 80.275798 150.69296551 77.07609749 C151.22105179 75.50733794 151.74888572 73.93849342 152.2764616 72.36956215 C155.13807504 63.86063804 158.02259152 55.36066031 160.96652508 46.8798275 C161.35584776 45.75636752 161.35584776 45.75636752 161.75303555 44.61021137 C162.98274724 41.06266881 164.21707999 37.51687304 165.46023846 33.97402 C165.89060406 32.73548775 166.32096966 31.49695549 166.76437664 30.22089195 C167.33391064 28.59452057 167.33391064 28.59452057 167.91495037 26.9352932 C168.86671864 24.24473753 168.86671864 24.24473753 168.72238445 21.25726891 C112.62238445 21.25726891 56.52238445 21.25726891 -1.27761555 21.25726891 Z M181.72238445 21.25726891 C181.72238445 37.09726891 181.72238445 52.93726891 181.72238445 69.25726891 C216.04238445 69.25726891 250.36238445 69.25726891 285.72238445 69.25726891 C276.71707491 95.35139419 267.69634068 121.43518011 258.45038128 147.44473839 C251.32603624 167.49084823 244.30802693 187.57354797 237.3117857 207.66463947 C236.21218636 210.82199708 235.1118026 213.97908105 234.01144695 217.13617516 C233.58488811 218.36097084 233.15832928 219.58576653 232.71884441 220.84767723 C230.37399302 227.56837556 228.00674376 234.28027974 225.61203289 240.98334312 C225.35549372 241.70230105 225.09895454 242.42125898 224.83464146 243.16200352 C223.59146528 246.64547973 222.3450879 250.12774566 221.09289837 253.60799217 C220.65142467 254.84311043 220.20995098 256.07822868 219.7550993 257.35077477 C219.36188488 258.44530464 218.96867046 259.53983452 218.56354046 260.66753197 C217.61941207 263.12047894 217.61941207 263.12047894 217.72238445 265.25726891 C234.55238445 265.25726891 251.38238445 265.25726891 268.72238445 265.25726891 C272.57656836 254.97944515 276.33136033 244.73166909 279.8122282 234.33148766 C280.27741351 232.94898811 280.74290143 231.56659035 281.2086668 230.18428612 C282.18831703 227.2757477 283.16657917 224.36674837 284.1436491 221.45734215 C286.72854038 213.7617336 289.32418331 206.06975018 291.9216032 198.37836266 C292.17815811 197.61850689 292.43471302 196.85865112 292.69904232 196.07576942 C296.71298845 184.1920213 300.80145241 172.3369058 304.97238445 160.50726891 C313.21274643 137.11829207 321.08007122 113.60155129 328.98701954 90.09832191 C330.1055947 86.77341209 331.22454893 83.44862993 332.34361172 80.1238842 C332.8936205 78.48954067 333.4434494 76.85513659 333.99309444 75.2206707 C337.04061722 66.16002372 340.1093694 57.10730546 343.22482586 48.06976891 C343.5070654 47.25035568 343.78930494 46.43094246 344.0800972 45.58669853 C345.42672804 41.67867435 346.77697039 37.77195877 348.13319683 33.86725426 C348.61068922 32.48492066 349.08809599 31.10255748 349.56540203 29.72015953 C349.98340572 28.51573204 350.40140942 27.31130455 350.83207989 26.07037926 C351.82296227 23.43124355 351.82296227 23.43124355 351.72238445 21.25726891 C295.62238445 21.25726891 239.52238445 21.25726891 181.72238445 21.25726891 Z " fill="#F59532" transform="translate(80.27761554718018,112.74273109436035)"/>
</svg>
