<?xml version="1.0" encoding="UTF-8"?>
<svg version="1.1" xmlns="http://www.w3.org/2000/svg" width="512" height="512">
<path d="M0 0 C38.39360423 4.97679302 78.56378393 21.49845123 103.29003906 52.43457031 C109.84905285 61.11081788 115.10653218 70.4344659 120.01953125 80.1171875 C121.7134047 83.56249475 121.7134047 83.56249475 123.796875 86.56640625 C124.07660156 85.839375 124.35632813 85.11234375 124.64453125 84.36328125 C133.45545927 62.26513381 147.99329459 46.33262632 168.734375 34.87890625 C169.33668945 34.53956055 169.93900391 34.20021484 170.55957031 33.85058594 C174.77329089 31.6516161 178.0809943 30.97482832 182.796875 31.56640625 C184.9140625 32.9296875 184.9140625 32.9296875 186.671875 34.87890625 C187.67927734 35.97912109 187.67927734 35.97912109 188.70703125 37.1015625 C191.65107509 40.57388336 194.52969837 44.09405534 197.37890625 47.64453125 C199.92285689 50.71864284 202.57809361 53.6481029 205.296875 56.56640625 C209.57900268 61.16784138 213.59366743 65.91937706 217.51953125 70.83203125 C219.15314771 72.79349184 220.78578048 74.64607761 222.54296875 76.48828125 C223.45175781 77.4421875 224.36054688 78.39609375 225.296875 79.37890625 C226.1321875 80.23097656 226.9675 81.08304687 227.828125 81.9609375 C230.1462916 85.02882862 230.91778245 86.71248127 230.796875 90.56640625 C229.03515625 93.40625 229.03515625 93.40625 225.796875 95.56640625 C222.1900169 96.21839473 218.64112183 96.16274578 214.984375 96.12890625 C198.20138624 96.4423608 179.98348329 99.75916559 167.30859375 111.859375 C155.90810843 124.73279124 150.28546314 141.39373419 150.796875 158.56640625 C151.29388916 158.3147168 151.79090332 158.06302734 152.30297852 157.80371094 C162.95089014 152.4595492 173.0653151 147.96491373 184.796875 145.56640625 C185.9715332 145.30585449 185.9715332 145.30585449 187.16992188 145.04003906 C194.88783877 143.4493883 202.43129855 143.1803774 210.296875 143.19140625 C210.95439758 143.19195007 211.61192017 143.1924939 212.28936768 143.1930542 C245.35062544 143.31830521 274.9366366 156.75273743 298.33105469 180.0390625 C322.06334219 204.76744201 331.43591314 236.56331419 331.07421875 270.203125 C330.24727477 301.51591435 320.73083331 333.47545802 308.14428711 361.96679688 C307.82143486 362.70101868 307.49858261 363.43524048 307.16594696 364.19171143 C306.37765229 365.98389104 305.58746005 367.77523581 304.796875 369.56640625 C305.36617391 369.5687946 305.93547281 369.57118296 306.5220232 369.57364368 C320.36788642 369.63275376 334.21357285 369.70846765 348.05924702 369.80212116 C354.75490133 369.84690727 361.45048673 369.88651443 368.14624023 369.9128418 C374.60430172 369.93879253 381.0621256 369.97913644 387.52004051 370.02959251 C389.98764281 370.04631703 392.45528626 370.05779638 394.92293739 370.06402016 C398.37116209 370.07360049 401.81877118 370.10158738 405.2668457 370.1340332 C406.29399185 370.13259811 407.321138 370.13116302 408.37940979 370.12968445 C409.31750488 370.1422226 410.25559998 370.15476074 411.22212219 370.16767883 C412.03790898 370.1722878 412.85369577 370.17689676 413.69420338 370.18164539 C416.33151151 370.6642376 417.21702659 371.42562121 418.796875 373.56640625 C419.13566351 376.15157621 419.27142435 378.41868481 419.234375 381.00390625 C419.22301514 382.12249023 419.22301514 382.12249023 419.21142578 383.26367188 C418.25373421 417.0694853 401.7748098 446.67574924 377.671875 469.56640625 C350.4732126 493.66744321 317.50689476 501.58177786 281.796875 499.56640625 C252.33959342 496.47628426 225.09475383 481.87580728 204.796875 460.56640625 C204.796875 459.90640625 204.796875 459.24640625 204.796875 458.56640625 C203.62125 458.52515625 202.445625 458.48390625 201.234375 458.44140625 C189.71498929 457.10320446 180.04483531 451.41988295 170.85546875 444.75 C160.26008124 437.18573229 150.81001526 433.57598602 137.74609375 435.03125 C129.2549625 436.57202481 122.76946532 440.72217418 115.796875 445.56640625 C99.36027684 456.73627069 83.36347208 461.47230423 63.57421875 458.19873047 C45.19220996 454.13007294 27.11558922 439.19850477 15.796875 424.56640625 C15.36697266 424.02032715 14.93707031 423.47424805 14.49414062 422.91162109 C7.14735654 413.54667836 0.57083417 403.97258126 -5.203125 393.56640625 C-5.65655273 392.75913086 -6.10998047 391.95185547 -6.57714844 391.12011719 C-23.66874143 360.44202074 -34.97139865 327.07750681 -41.203125 292.56640625 C-41.44933594 291.28507812 -41.69554688 290.00375 -41.94921875 288.68359375 C-47.37292268 255.84213136 -41.3579634 223.09132396 -23.046875 195.29296875 C-3.3764116 168.13917688 22.43499857 152.5596422 54.796875 144.56640625 C53.87648438 144.04433594 52.95609375 143.52226562 52.0078125 142.984375 C18.39720275 123.58072694 -2.64545016 95.00445212 -13.36279297 57.72802734 C-17.40880076 42.50554014 -20.34742018 26.96785027 -20.453125 11.19140625 C-20.47375 10.39863281 -20.494375 9.60585938 -20.515625 8.7890625 C-20.55474549 3.00901074 -20.55474549 3.00901074 -18.83691406 0.84667969 C-14.2055664 -2.78254732 -5.52487432 -0.61681816 0 0 Z M-7.203125 12.56640625 C-4.06846887 51.70836235 7.18882218 90.2901631 37.73046875 117.09375 C62.36561449 136.95877835 91.80493491 146.18568898 122.796875 150.56640625 C124.49044591 116.1304645 108.89644356 79.3525508 86.4296875 53.8828125 C79.93970479 47.063011 72.59171148 41.76612964 64.796875 36.56640625 C63.98863281 36.01210938 63.18039063 35.4578125 62.34765625 34.88671875 C41.73872996 21.57903511 16.6655384 16.18503595 -7.203125 12.56640625 Z M152.41796875 63.8203125 C139.14381667 77.72750909 133.34112321 95.441743 133.36181641 114.43188477 C133.61955923 123.66242266 135.70188095 132.60656561 137.796875 141.56640625 C138.126875 141.56640625 138.456875 141.56640625 138.796875 141.56640625 C138.9928125 140.66921875 139.18875 139.77203125 139.390625 138.84765625 C143.84957201 120.24308424 151.79625998 104.9620052 168.43212891 94.62084961 C181.00363248 87.15578229 194.29045291 83.81695988 208.796875 82.56640625 C206.18299416 78.46913309 203.44990845 74.93461094 200.109375 71.37890625 C196.6500056 67.63464761 193.32072368 63.83810325 190.109375 59.87890625 C189.38105469 58.98171875 188.65273438 58.08453125 187.90234375 57.16015625 C187.20753906 56.30421875 186.51273438 55.44828125 185.796875 54.56640625 C184.51625031 52.99484352 183.22560439 51.43135551 181.921875 49.87890625 C181.38820312 49.23566406 180.85453125 48.59242187 180.3046875 47.9296875 C174.10479046 42.32408111 157.09329893 59.25111382 152.41796875 63.8203125 Z M6.796875 182.56640625 C5.64638672 183.50226563 5.64638672 183.50226563 4.47265625 184.45703125 C-15.54221491 201.0836956 -27.78789185 228.02771352 -30.203125 253.56640625 C-33.40718772 302.78146913 -13.29983765 357.8717096 13.796875 398.56640625 C14.18262695 399.14841797 14.56837891 399.73042969 14.96582031 400.33007812 C20.85543169 409.13369675 27.45559314 416.94746623 34.796875 424.56640625 C35.47363281 425.30632812 36.15039062 426.04625 36.84765625 426.80859375 C46.81131121 437.41173795 60.0029916 445.32056624 74.76611328 446.15722656 C88.92837799 446.3955912 99.05031461 440.73743227 110.31787109 432.95458984 C123.65944547 423.74767058 136.74606923 419.81140792 152.9921875 421.99609375 C164.60805622 424.2632874 174.19505865 430.06470463 183.578125 437.0859375 C185.90437367 438.63813512 188.17265972 439.6192863 190.796875 440.56640625 C190.55042236 440.07462891 190.30396973 439.58285156 190.05004883 439.07617188 C180.1723748 419.21478579 171.56891031 397.26143644 173.796875 374.56640625 C174.456875 373.57640625 175.116875 372.58640625 175.796875 371.56640625 C177.80773354 371.18164539 177.80773354 371.18164539 180.32730103 371.16767883 C181.28084976 371.15514069 182.2343985 371.14260254 183.21684265 371.12968445 C184.26628555 371.13111954 185.31572845 371.13255463 186.39697266 371.1340332 C187.49941818 371.12384155 188.60186371 371.1136499 189.73771667 371.10314941 C193.3955076 371.07286356 197.05303734 371.06372955 200.7109375 371.0546875 C203.24157594 371.0378524 205.77220596 371.01970377 208.30282593 371.00028992 C214.29159259 370.95753007 220.28028325 370.92805683 226.26914632 370.90496653 C233.08655636 370.87794432 239.90382457 370.83403111 246.72113347 370.78867781 C260.7463037 370.69575253 274.77151881 370.62410803 288.796875 370.56640625 C289.9158623 368.35456275 291.03195934 366.14133691 292.14648438 363.92724609 C292.46018982 363.30788681 292.77389526 362.68852753 293.09710693 362.05039978 C295.85697589 356.55840491 298.17795944 350.96172065 300.296875 345.19140625 C300.67360352 344.17103271 301.05033203 343.15065918 301.43847656 342.09936523 C315.37806996 303.66532571 326.3271756 260.07824129 309.35546875 220.88671875 C304.82571089 211.23685864 299.47519447 202.89189512 292.796875 194.56640625 C291.79914063 193.29990234 291.79914063 193.29990234 290.78125 192.0078125 C274.41654594 172.48884296 248.03785514 158.94329077 222.796875 156.56640625 C197.05800043 155.01451675 173.76420902 159.48332951 151.99609375 173.6484375 C148.89992976 175.50462373 146.3208861 176.79248669 142.796875 177.56640625 C140.76953125 176.94921875 140.76953125 176.94921875 138.859375 175.69140625 C137.71662109 174.98757812 137.71662109 174.98757812 136.55078125 174.26953125 C135.64199219 173.7075 134.73320312 173.14546875 133.796875 172.56640625 C131.31607867 171.15522101 128.8088738 169.79607227 126.296875 168.44140625 C125.39014038 167.93697998 125.39014038 167.93697998 124.46508789 167.42236328 C86.84133705 147.032133 38.16668397 154.70408774 6.796875 182.56640625 Z M186.796875 383.56640625 C186.796875 389.85388262 186.95521966 394.77265591 188.421875 400.69140625 C188.5986377 401.41859863 188.77540039 402.14579102 188.95751953 402.89501953 C196.37906862 431.99380816 214.89268709 456.52365719 240.41870117 472.18310547 C265.40191561 486.77262383 295.21947916 490.56230291 323.25390625 483.8203125 C341.76796924 478.91301731 357.81309723 469.48641116 371.796875 456.56640625 C372.90095703 455.58414063 372.90095703 455.58414063 374.02734375 454.58203125 C392.47203075 437.35226375 402.53599211 412.11581726 405.796875 387.56640625 C405.796875 386.24640625 405.796875 384.92640625 405.796875 383.56640625 C383.026875 383.56640625 360.256875 383.56640625 336.796875 383.56640625 C334.321875 389.50640625 334.321875 389.50640625 331.796875 395.56640625 C325.78997359 404.85923262 316.82366696 410.17568778 306.234375 412.94140625 C292.57683814 415.32410603 279.19641435 412.53169952 267.796875 404.56640625 C261.21583549 398.65814959 258.02357611 391.63315903 254.796875 383.56640625 C232.356875 383.56640625 209.916875 383.56640625 186.796875 383.56640625 Z M268.796875 383.56640625 C272.19875244 392.07109985 276.59803939 395.88246998 284.796875 399.56640625 C292.10236937 402.54162775 300.12146167 402.10935915 307.54296875 399.66015625 C313.5867741 396.93722416 318.16748162 393.1492346 321.796875 387.56640625 C322.126875 386.24640625 322.456875 384.92640625 322.796875 383.56640625 C304.976875 383.56640625 287.156875 383.56640625 268.796875 383.56640625 Z " fill="#FFCD3A" transform="translate(68.203125,6.43359375)"/>
<path d="M0 0 C2.82702142 2.3224133 2.96159193 2.64152473 3.375 6.5 C3 10 3 10 1.875 11.9375 C-0.93225048 13.52827527 -2.79035057 13.3149656 -6 13 C-8.58039857 11.68691469 -10.93725276 10.34685212 -13.375 8.8125 C-31.30024795 -1.88012127 -51.86746654 -4.70567144 -72.20703125 -0.09765625 C-84.26863783 3.39288077 -94.4423892 8.76983515 -104 17 C-104.79921875 17.68707031 -105.5984375 18.37414062 -106.421875 19.08203125 C-122.07081385 33.62475201 -128.73716363 53.46356985 -130.5 74.3125 C-131.02157065 78.15908352 -131.21238111 78.67240688 -134 81 C-135.875 81.875 -135.875 81.875 -138 82 C-140.24356294 80.85213059 -142.2095767 79.7904233 -144 78 C-146.06419577 56.04807194 -137.39449995 33.91388687 -123.66796875 17.15234375 C-121.50212123 14.70607986 -119.27373672 12.34571721 -117 10 C-116.46246094 9.38898438 -115.92492187 8.77796875 -115.37109375 8.1484375 C-86.16597053 -23.91132182 -33.89519488 -22.38462009 0 0 Z " fill="#FFC131" transform="translate(198,195)"/>
</svg>
