<?xml version="1.0" encoding="UTF-8"?>
<svg version="1.1" xmlns="http://www.w3.org/2000/svg" width="512" height="512">
<path d="M0 0 C9.78934247 6.85066796 15.70770572 15.61171355 17.98046875 27.3046875 C19.02915793 34.42473507 18.90700338 41.50061265 18.73046875 48.6796875 C19.33890625 48.8034375 19.94734375 48.9271875 20.57421875 49.0546875 C37.75162694 53.0964306 53.45529777 63.3638038 66.73046875 74.6796875 C67.68953125 75.49179688 68.64859375 76.30390625 69.63671875 77.140625 C93.60907571 97.96352765 110.57486035 129.96582307 113.73046875 161.6796875 C113.80136719 162.38931641 113.87226563 163.09894531 113.9453125 163.83007812 C114.17187958 166.2368565 114.36350844 168.64396155 114.54296875 171.0546875 C114.60846924 171.81668457 114.67396973 172.57868164 114.74145508 173.36376953 C115.03752729 178.27304738 114.4934532 181.41981172 111.73046875 185.6796875 C108.6010441 187.24439983 105.11964652 187.37670708 101.73046875 186.6796875 C98.71559179 184.5016803 97.84052691 183.18432918 97.04296875 179.52734375 C96.93984375 178.27824219 96.83671875 177.02914062 96.73046875 175.7421875 C96.58360481 174.30151418 96.43095968 172.86142194 96.2734375 171.421875 C96.19013184 170.65456055 96.10682617 169.88724609 96.02099609 169.09667969 C92.18154556 137.15503239 79.28460681 106.67714455 53.65625 86.2265625 C26.74672591 65.85836377 -5.86329584 57.27591014 -39.36425781 61.40258789 C-69.27533571 65.73838503 -97.95031087 80.73683209 -116.40625 105.0390625 C-135.14035262 131.58885993 -140.70954112 159.66537178 -140.7109375 191.69140625 C-140.72274013 194.07738543 -140.73611127 196.4633573 -140.7509613 198.84931946 C-140.78688127 205.08594212 -140.80726846 211.32250004 -140.82250977 217.5592041 C-140.84748593 227.54806867 -140.8873916 237.53679027 -140.94441032 247.52552223 C-140.96056837 250.98732102 -140.96450031 254.44898079 -140.96742249 257.91081238 C-141.06126787 286.11301981 -141.06126787 286.11301981 -145.76953125 296.3046875 C-146.19234375 297.24570312 -146.61515625 298.18671875 -147.05078125 299.15625 C-148.10532584 301.33969808 -149.18514112 303.51090723 -150.26953125 305.6796875 C-65.78953125 305.6796875 18.69046875 305.6796875 105.73046875 305.6796875 C103.75046875 301.3896875 101.77046875 297.0996875 99.73046875 292.6796875 C96.97698428 284.92068005 97.40249657 276.86974722 97.39453125 268.7265625 C97.38809588 267.17816039 97.38136698 265.62975948 97.37435913 264.08135986 C97.36243647 260.85043514 97.35867366 257.61961702 97.35986328 254.38867188 C97.36006743 250.25027285 97.33264466 246.11255312 97.29831886 241.97431564 C97.27609322 238.78298801 97.27202421 235.59182589 97.27308273 232.40042877 C97.27072488 230.8741952 97.26189086 229.34795719 97.246418 227.82180023 C97.22682254 225.69158284 97.23256617 223.56285855 97.24462891 221.43261719 C97.24177887 220.22208679 97.23892883 219.0115564 97.23599243 217.76434326 C97.82542949 214.08730077 98.81676197 212.92084366 101.73046875 210.6796875 C104.47136103 209.95163799 106.96068081 210.10525509 109.73046875 210.6796875 C112.69905032 212.88709431 113.55912666 214.16566123 114.73046875 217.6796875 C114.82783456 219.72218566 114.86593274 221.76769241 114.87231445 223.8125 C114.87934891 225.07811768 114.88638336 226.34373535 114.89363098 227.64770508 C114.89544687 228.32443268 114.89726276 229.00116028 114.89913368 229.69839478 C114.90632629 231.82726756 114.92201745 233.95591345 114.94047546 236.0847168 C114.99278465 242.13766185 115.0408127 248.19048659 115.05639648 254.24365234 C115.06656146 257.94970657 115.09610486 261.65519411 115.13771629 265.36102295 C115.14991885 266.76417728 115.15516748 268.16741209 115.15291786 269.57061768 C115.13683092 282.89125288 117.64015533 292.75920847 126.73046875 302.6796875 C129.75096398 305.70018273 132.54064865 307.03524324 136.48046875 308.4921875 C146.58635223 312.36635977 153.85650396 319.67675116 159.05078125 329.06640625 C163.3455167 338.8722183 163.46564413 351.59219965 160.16796875 361.7421875 C155.98700329 371.28823801 148.73681481 379.38743337 139.23988628 383.85000229 C132.62736482 386.36408779 126.98012005 387.2423925 119.93481445 387.13378906 C118.41084801 387.13466522 118.41084801 387.13466522 116.85609436 387.13555908 C113.53911685 387.13279979 110.2230681 387.10181009 106.90625 387.0703125 C104.5902709 387.06284245 102.27428544 387.05715313 99.95829773 387.05316162 C93.89358753 387.0379656 87.82926688 386.99873588 81.76470947 386.9543457 C75.56389636 386.91326253 69.36301966 386.89512282 63.16210938 386.875 C51.018059 386.8322357 38.8742964 386.76405783 26.73046875 386.6796875 C26.73563507 387.43065201 26.74080139 388.18161652 26.74612427 388.95533752 C26.75215164 390.43646278 26.75215164 390.43646278 26.75830078 391.94750977 C26.7634671 392.92534927 26.76863342 393.90318878 26.7739563 394.91065979 C26.57443641 407.61489635 21.79093653 419.67266346 13.23046875 428.9921875 C1.9268735 439.59571114 -11.80028586 443.34994039 -26.9375 442.9921875 C-38.35463836 442.38850537 -47.5205271 437.76020279 -55.95703125 430.3046875 C-67.25098148 417.48452778 -70.45442328 405.45293192 -70.58203125 388.6171875 C-70.61103516 387.33779297 -70.64003906 386.05839844 -70.66992188 384.74023438 C-70.67830078 383.51240234 -70.68667969 382.28457031 -70.6953125 381.01953125 C-70.71718628 379.33911743 -70.71718628 379.33911743 -70.73950195 377.62475586 C-70.14234382 373.88266828 -69.27553682 372.95300906 -66.26953125 370.6796875 C-63.61181062 370.28746888 -61.36751608 370.14021173 -58.71186829 370.17416382 C-57.94709284 370.1680737 -57.18231738 370.16198358 -56.39436692 370.15570891 C-53.82941603 370.14008189 -51.26539536 370.15290784 -48.70043945 370.16552734 C-46.86225293 370.16006766 -45.02407096 370.1528269 -43.18589783 370.14393616 C-39.22547488 370.12858288 -35.26531106 370.12580387 -31.30486488 370.13270187 C-25.03884872 370.14347849 -18.77310366 370.12611644 -12.50712585 370.10488892 C-2.59087266 370.07460487 7.32530044 370.06293241 17.24159604 370.05931246 C34.98382481 370.05267323 52.72599747 370.02359504 70.46815807 369.9742161 C76.69269736 369.95774431 82.91712019 369.95229654 89.14167917 369.95580649 C93.02187223 369.95624473 96.90202166 369.94866085 100.78220177 369.93913078 C102.57642439 369.9364566 104.37065595 369.93718504 106.16487503 369.94164085 C122.34067551 370.23495797 122.34067551 370.23495797 136.73046875 363.6796875 C137.39046875 363.6796875 138.05046875 363.6796875 138.73046875 363.6796875 C138.99859375 363.1434375 139.26671875 362.6071875 139.54296875 362.0546875 C140.40999592 360.32063316 141.33521706 358.61533048 142.29296875 356.9296875 C144.9370461 350.9517735 145.24611017 345.76983123 143.4765625 339.5703125 C142.32456238 336.65110801 140.54590045 334.22129188 138.73046875 331.6796875 C138.73046875 331.0196875 138.73046875 330.3596875 138.73046875 329.6796875 C138.19421875 329.4115625 137.65796875 329.1434375 137.10546875 328.8671875 C135.35497279 327.99193952 133.62879418 327.06764607 131.91796875 326.1171875 C124.99216469 322.99378567 117.47666733 323.53541398 110.01565552 323.54597473 C108.83996156 323.54370917 107.66426759 323.54144362 106.45294654 323.53910941 C103.2024736 323.5338859 99.95203557 323.53312252 96.70155978 323.53430378 C93.19090809 323.53450832 89.68026456 323.52898405 86.1696167 323.52424622 C79.29676619 323.51595088 72.42392425 323.51319189 65.55106916 323.51263384 C59.96349712 323.5121582 54.37592792 323.51010107 48.78835678 323.50693321 C32.93809517 323.49813013 17.08784033 323.49351336 1.23757626 323.49426369 C0.38364387 323.49430364 -0.47028852 323.4943436 -1.35009766 323.49438477 C-2.20507541 323.49442565 -3.06005316 323.49446653 -3.94093932 323.49450865 C-17.79865861 323.49491515 -31.65635072 323.48534374 -45.51406215 323.4712464 C-59.75135539 323.45687744 -73.98863538 323.44997648 -88.22593606 323.45084018 C-96.21579964 323.45117194 -104.20563474 323.44843386 -112.19549179 323.43766212 C-118.99751088 323.42855035 -125.79948855 323.42638748 -132.60151111 323.43317155 C-136.0699601 323.43643317 -139.53832968 323.43650637 -143.00677109 323.4278183 C-146.7715019 323.42010578 -150.53602443 323.42473853 -154.30075073 323.43244934 C-155.93515478 323.424734 -155.93515478 323.424734 -157.60257709 323.41686279 C-167.07219926 323.45969125 -175.66694268 324.0304107 -182.67578125 331.09765625 C-187.86244025 336.96280262 -188.73705619 342.05643312 -188.578125 349.67578125 C-187.93987468 355.88862294 -185.40183081 359.90395253 -180.83203125 364.0546875 C-174.33345074 369.15676454 -167.50281238 369.79772193 -159.40966797 369.8215332 C-158.75197418 369.82500763 -158.0942804 369.82848206 -157.41665649 369.83206177 C-155.99914251 369.83937163 -154.58161744 369.84474219 -153.1640892 369.84835243 C-150.91928746 369.85556492 -148.67469839 369.87126318 -146.42996216 369.88969421 C-140.05148076 369.94196445 -133.67312501 369.99018525 -127.29443359 370.00561523 C-123.38396178 370.01569186 -119.47404006 370.0449945 -115.56378555 370.08693504 C-114.07669354 370.09924159 -112.58952392 370.10436691 -111.10238266 370.10213661 C-109.02452382 370.09978529 -106.94825004 370.12192813 -104.87060547 370.1496582 C-103.68957245 370.15552444 -102.50853943 370.16139069 -101.29171753 370.16743469 C-97.65758088 370.78341151 -96.50412093 371.80801376 -94.26953125 374.6796875 C-92.89204071 378.16933021 -93.15838296 379.40446316 -94.58203125 382.9296875 C-96.26953125 385.6796875 -96.26953125 385.6796875 -98.26953125 386.6796875 C-100.65234633 386.79318739 -103.0066374 386.84747402 -105.39038086 386.85668945 C-106.12402863 386.86326065 -106.85767639 386.86983185 -107.61355591 386.87660217 C-110.04966332 386.89636131 -112.48570873 386.90800913 -114.921875 386.91796875 C-115.7558185 386.92204428 -116.589762 386.9261198 -117.44897652 386.93031883 C-121.87068561 386.95119973 -126.29236356 386.96548755 -130.71411133 386.97485352 C-135.25998125 386.98586756 -139.80535483 387.02020294 -144.35105038 387.06002522 C-147.8626235 387.08631751 -151.37408123 387.09455691 -154.88574409 387.09813499 C-156.5597115 387.10297562 -158.23367465 387.11451673 -159.90754509 387.13317299 C-173.78725037 387.27814034 -184.85945104 385.61747674 -195.26953125 375.6796875 C-204.07804078 366.45255573 -206.89527426 356.82924426 -206.74023438 344.31494141 C-206.31671022 333.61645089 -202.68844388 325.43169417 -195.26953125 317.6796875 C-190.74174422 313.5399965 -185.98498027 310.96179445 -180.36328125 308.59375 C-172.54088218 305.17874742 -166.64289683 299.01296071 -162.95703125 291.3671875 C-159.5597079 282.63687852 -158.97527393 273.67039211 -159.01416016 264.39111328 C-159.0105397 263.32108566 -159.00691925 262.25105804 -159.00318909 261.14860535 C-158.99633888 258.84287488 -158.99378136 256.53712834 -158.99513626 254.23138809 C-158.99611056 250.56169168 -158.98305007 246.89228102 -158.96615601 243.22262573 C-158.9201759 232.7945987 -158.89532133 222.36660163 -158.88867188 211.93847656 C-158.88360978 205.53896858 -158.85912214 199.13975892 -158.82334518 192.74035263 C-158.81365308 190.32390015 -158.8111562 187.90740607 -158.81651688 185.49094009 C-158.90194324 145.06878784 -146.57654322 109.09579539 -117.74121094 80.11230469 C-106.89278942 69.55183065 -93.99506293 61.21306692 -80.39453125 54.6796875 C-79.62238281 54.30585937 -78.85023438 53.93203125 -78.0546875 53.546875 C-72.89566448 51.15761906 -67.86176888 49.68711875 -62.26953125 48.6796875 C-62.29047852 48.0405542 -62.31142578 47.4014209 -62.33300781 46.74291992 C-63.13619641 18.55252535 -63.13619641 18.55252535 -52.26953125 6.6796875 C-46.96784442 1.10377549 -41.59248561 -2.00386775 -34.26953125 -4.3203125 C-33.66625 -4.51238281 -33.06296875 -4.70445313 -32.44140625 -4.90234375 C-21.41494238 -7.02434309 -9.72841893 -5.65956213 0 0 Z M-41.26953125 20.6796875 C-45.22273213 25.5630533 -45.48541985 30.34913879 -45.3671875 36.46484375 C-45.36013794 37.15968872 -45.35308838 37.85453369 -45.3458252 38.57043457 C-45.32752722 40.27361046 -45.29950679 41.97667711 -45.26953125 43.6796875 C-44.13 43.67445068 -42.99046875 43.66921387 -41.81640625 43.66381836 C-37.55974117 43.64562045 -33.30307948 43.63420174 -29.04638672 43.62475586 C-27.20946676 43.61974931 -25.37255074 43.6129421 -23.53564453 43.60424805 C-20.88443017 43.59202053 -18.23326882 43.58642227 -15.58203125 43.58203125 C-14.36435059 43.57428932 -14.36435059 43.57428932 -13.12207031 43.56639099 C-8.08218536 43.56590308 -3.25888792 43.95872546 1.73046875 44.6796875 C2.07788343 35.43459679 1.83283161 27.10148017 -4.26953125 19.6796875 C-9.69523647 14.1747749 -14.377371 11.66286953 -22.20703125 11.3671875 C-30.12447302 11.56867928 -35.97687332 14.96780914 -41.26953125 20.6796875 Z M-54.26953125 387.6796875 C-54.90411539 397.51574164 -52.96387883 406.51680944 -47.140625 414.60546875 C-41.41057387 420.95757136 -34.33992543 425.08181789 -25.82421875 426.0859375 C-15.54462108 426.34783808 -8.10716192 424.53380431 -0.11328125 417.88671875 C6.9459672 410.63304184 9.78670916 400.44452676 9.74609375 390.50390625 C9.73835938 388.61091797 9.73835938 388.61091797 9.73046875 386.6796875 C1.53356314 386.6565604 -6.66332893 386.63877054 -14.86025906 386.62787533 C-18.66604702 386.6226473 -22.47181273 386.61555112 -26.27758789 386.60424805 C-29.94745669 386.5934163 -33.61730403 386.58741006 -37.28718758 386.58481026 C-38.69028117 386.58295653 -40.09337354 386.5793369 -41.49645805 386.57395744 C-43.45522805 386.56674331 -45.41401945 386.56627941 -47.37280273 386.56616211 C-48.48977036 386.5639415 -49.60673798 386.56172089 -50.7575531 386.55943298 C-53.20858539 386.39457974 -53.20858539 386.39457974 -54.26953125 387.6796875 Z " fill="#FE9B00" transform="translate(278.26953125,37.3203125)"/>
<path d="M0 0 C3.2883921 2.71292348 3.90851499 4.34816929 4.5 8.5625 C3.90235271 12.6713251 3.14437983 13.40722038 0 16 C-3.00512695 17.44799805 -3.00512695 17.44799805 -6.48828125 18.76171875 C-7.10970505 18.99784378 -7.73112885 19.23396881 -8.37138367 19.47724915 C-9.68141965 19.97223057 -10.99347212 20.46190422 -12.30737305 20.9465332 C-14.30081558 21.68318218 -16.28627153 22.43875637 -18.27148438 23.19726562 C-33.73464346 29.00682513 -33.73464346 29.00682513 -38.8125 26.75 C-41.68298807 24.45360955 -42.88127061 22.78022168 -43.4375 19.125 C-42.84420225 14.88715894 -41.21607166 13.76054511 -38 11 C-34.80541992 9.42260742 -34.80541992 9.42260742 -31.23046875 8.10546875 C-30.59063553 7.86838699 -29.95080231 7.63130524 -29.2915802 7.38703918 C-27.9451679 6.89222895 -26.59619451 6.40433738 -25.24487305 5.9230957 C-23.19635252 5.19066514 -21.15991185 4.43017795 -19.12304688 3.66601562 C-17.80531342 3.18577904 -16.48697156 2.70720791 -15.16796875 2.23046875 C-13.39329224 1.58694458 -13.39329224 1.58694458 -11.58276367 0.93041992 C-7.41223666 -0.15263823 -4.29268346 -0.31059708 0 0 Z " fill="#FFD300" transform="translate(95,268)"/>
<path d="M0 0 C1.82047852 0.65162109 1.82047852 0.65162109 3.67773438 1.31640625 C4.84240234 1.74566406 6.00707031 2.17492187 7.20703125 2.6171875 C8.25995361 3.00245605 9.31287598 3.38772461 10.39770508 3.78466797 C13.37392816 5.21456774 15.12171378 6.55988322 17.1875 9.125 C17.77922793 13.19312955 17.56026489 15.39500208 15.6875 19.0625 C12.74579374 21.48940766 11.04967493 21.43650268 7.32553101 21.33407593 C4.02318333 21.01114263 1.13098565 20.02279102 -1.98046875 18.89453125 C-2.62317215 18.66223312 -3.26587555 18.429935 -3.92805481 18.19059753 C-5.27395858 17.70009452 -6.61752385 17.20312985 -7.95874023 16.69995117 C-9.99890084 15.93791056 -12.0480193 15.20523542 -14.09960938 14.47460938 C-15.41469852 13.99131048 -16.72917489 13.50634023 -18.04296875 13.01953125 C-19.22270264 12.58487549 -20.40243652 12.15021973 -21.61791992 11.70239258 C-25.14345876 9.961582 -27.2864508 8.12291321 -29.8125 5.125 C-30.55057041 1.1886245 -30.17386708 -0.31425798 -28 -3.6875 C-21.13132226 -10.55617774 -7.70424976 -2.85219392 0 0 Z " fill="#FFD300" transform="translate(81.8125,142.875)"/>
<path d="M0 0 C2.81831785 2.59581908 3.85564038 4.23008205 4.5625 8 C3.79867865 12.07371388 2.11427566 13.31117615 -1 16 C-4.19458008 17.57739258 -4.19458008 17.57739258 -7.76953125 18.89453125 C-8.40936447 19.13161301 -9.04919769 19.36869476 -9.7084198 19.61296082 C-11.0548321 20.10777105 -12.40380549 20.59566262 -13.75512695 21.0769043 C-15.80364748 21.80933486 -17.84008815 22.56982205 -19.87695312 23.33398438 C-21.19468658 23.81422096 -22.51302844 24.29279209 -23.83203125 24.76953125 C-25.60670776 25.41305542 -25.60670776 25.41305542 -27.41723633 26.06958008 C-31.58776334 27.15263823 -34.70731654 27.31059708 -39 27 C-42.2883921 24.28707652 -42.90851499 22.65183071 -43.5 18.4375 C-42.9020646 14.32669412 -42.15029734 13.59046702 -39 11 C-35.94726562 9.55200195 -35.94726562 9.55200195 -32.40625 8.23828125 C-31.77771118 8.00215622 -31.14917236 7.76603119 -30.50158691 7.52275085 C-28.50471134 6.77571994 -26.50252895 6.04422109 -24.5 5.3125 C-23.1545913 4.81019897 -21.80953507 4.30695273 -20.46484375 3.80273438 C-5.75360658 -1.67813525 -5.75360658 -1.67813525 0 0 Z " fill="#FD6300" transform="translate(456,137)"/>
<path d="M0 0 C3.48510742 0.9621582 3.48510742 0.9621582 7.10546875 2.30078125 C7.75195877 2.53782272 8.39844879 2.7748642 9.06452942 3.01908875 C10.42026937 3.51895684 11.77399706 4.024314 13.12573242 4.53491211 C15.18767188 5.31256482 17.25606246 6.07057336 19.32617188 6.82617188 C30.65910595 11.02792221 30.65910595 11.02792221 34 14 C35.06549629 16.65264181 35.22702801 19.1593813 35 22 C33.4375 24.9375 33.4375 24.9375 31 27 C26.03042867 28.41467909 22.46908961 27.53394345 17.7734375 25.76171875 C17.10333649 25.52089066 16.43323547 25.28006256 15.74282837 25.03193665 C13.61525077 24.26340275 11.49541715 23.47554498 9.375 22.6875 C7.94315126 22.16869779 6.51086286 21.65110734 5.078125 21.13476562 C-9.36242233 15.89260874 -9.36242233 15.89260874 -11.25 13.25 C-12.25828913 10.2251326 -12.45341075 8.17387527 -12 5 C-8.39525481 -0.02479632 -5.9797677 -0.43985437 0 0 Z " fill="#FD6300" transform="translate(425,268)"/>
<path d="M0 0 C0.87269531 -0.0038269 1.74539062 -0.00765381 2.64453125 -0.01159668 C4.48699092 -0.0143149 6.32948924 -0.00695994 8.171875 0.00976562 C10.99045934 0.03117752 13.80649485 0.00996199 16.625 -0.015625 C18.41667229 -0.01298171 20.20834299 -0.00785669 22 0 C22.84175781 -0.00809692 23.68351562 -0.01619385 24.55078125 -0.02453613 C30.38573368 0.06887324 30.38573368 0.06887324 33.50390625 2.41601562 C35.30483284 4.96223429 35.92546797 6.40090483 36 9.53125 C33.72289157 15.16980422 33.72289157 15.16980422 31 16.53125 C28.05730475 16.6670523 25.13946874 16.7440075 22.1953125 16.76953125 C21.31978729 16.777603 20.44426208 16.78567474 19.54220581 16.79399109 C17.68782533 16.80783221 15.83341937 16.81855424 13.97900391 16.82641602 C11.14306434 16.84364029 8.30828714 16.88752643 5.47265625 16.93164062 C3.67188358 16.94176655 1.87110099 16.95028297 0.0703125 16.95703125 C-0.77771942 16.97453934 -1.62575134 16.99204742 -2.4994812 17.01008606 C-8.39092309 16.98838047 -8.39092309 16.98838047 -11.53369141 14.62963867 C-13.11838881 12.36182745 -13.54277444 11.26881437 -13.5 8.53125 C-13.51546875 7.54125 -13.51546875 7.54125 -13.53125 6.53125 C-11.69061453 -0.39820116 -5.94975317 -0.05723107 0 0 Z " fill="#FFD600" transform="translate(53,207.46875)"/>
<path d="M0 0 C0.87269531 -0.0038269 1.74539063 -0.00765381 2.64453125 -0.01159668 C4.48699092 -0.0143149 6.32948924 -0.00695994 8.171875 0.00976562 C10.99045934 0.03117752 13.80649485 0.00996199 16.625 -0.015625 C18.41667229 -0.01298171 20.20834299 -0.00785669 22 0 C22.84175781 -0.00809692 23.68351562 -0.01619385 24.55078125 -0.02453613 C30.38715618 0.06889601 30.38715618 0.06889601 33.52929688 2.43945312 C35.12144695 4.7039853 35.542797 5.7922417 35.5 8.53125 C35.5103125 9.19125 35.520625 9.85125 35.53125 10.53125 C34.72011424 13.58493756 33.53019712 14.62236769 31 16.53125 C28.00263779 17.13239553 25.04890723 17.09182764 22 17.0625 C21.12730469 17.0663269 20.25460937 17.07015381 19.35546875 17.07409668 C17.51300908 17.0768149 15.67051076 17.06945994 13.828125 17.05273438 C11.00954066 17.03132248 8.19350515 17.05253801 5.375 17.078125 C3.58332771 17.07548171 1.79165701 17.07035669 0 17.0625 C-0.84175781 17.07059692 -1.68351562 17.07869385 -2.55078125 17.08703613 C-8.38715618 16.99360399 -8.38715618 16.99360399 -11.52929688 14.62304688 C-13.12144695 12.3585147 -13.542797 11.2702583 -13.5 8.53125 C-13.51546875 7.54125 -13.51546875 7.54125 -13.53125 6.53125 C-11.69061453 -0.39820116 -5.94975317 -0.05723107 0 0 Z " fill="#FD6000" transform="translate(437,207.46875)"/>
</svg>
