<?xml version="1.0" encoding="UTF-8"?>
<svg version="1.1" xmlns="http://www.w3.org/2000/svg" width="512" height="512">
<path d="M0 0 C10.72681731 8.99453626 18.64952463 19.38416668 24.515625 32.109375 C24.515625 32.769375 24.515625 33.429375 24.515625 34.109375 C25.65 34.026875 26.784375 33.944375 27.953125 33.859375 C34.49477443 33.84775573 40.615915 36.84875761 45.515625 41.109375 C47.53070038 40.10409131 49.54358222 39.09515492 51.55078125 38.07421875 C52.21980469 37.73519531 52.88882812 37.39617187 53.578125 37.046875 C54.24972656 36.70527344 54.92132813 36.36367187 55.61328125 36.01171875 C58.76472869 34.51688434 61.25949365 33.99042203 64.703125 34.046875 C65.96125 34.0675 67.219375 34.088125 68.515625 34.109375 C68.77214844 33.24828125 69.02867187 32.3871875 69.29296875 31.5 C72.95984991 21.33114106 79.96310394 12.67491765 87.515625 5.109375 C88.54429687 4.06330078 88.54429687 4.06330078 89.59375 2.99609375 C98.16331231 -5.17672956 109.27346966 -11.24880003 120.515625 -14.890625 C121.37027344 -15.18839844 122.22492188 -15.48617187 123.10546875 -15.79296875 C145.85826857 -22.42029434 169.36350383 -17.89149694 189.70947266 -6.91113281 C190.96002476 -6.2045489 192.19346354 -5.46712865 193.41162109 -4.70605469 C195.0643894 -3.68447027 196.78739481 -2.77859922 198.515625 -1.890625 C201.79947614 -3.00601056 201.79947614 -3.00601056 204.0234375 -4.0625 C211.22548018 -6.45565525 220.03871278 -6.04163371 226.953125 -2.953125 C233.62348422 0.98238694 239.80335006 7.20120525 242.11328125 14.75 C243.63721038 23.68643876 243.54949044 32.35906388 238.515625 40.109375 C233.80691629 46.46372935 233.80691629 46.46372935 230.515625 48.109375 C231.161102 56.01646831 233.38559639 63.50071467 235.515625 71.109375 C240.15404469 70.67178824 244.30954723 69.91797585 248.765625 68.546875 C256.1862352 66.4781612 264.03097367 65.24543835 271.015625 69.171875 C277.14572722 73.16450736 279.23525783 80.62994651 280.97338867 87.33618164 C281.18694504 88.12735886 281.4005014 88.91853607 281.62052917 89.73368835 C282.31778459 92.32651653 283.00087392 94.92284146 283.68359375 97.51953125 C284.16794149 99.33382286 284.65308712 101.14790163 285.13899231 102.96177673 C286.15263276 106.75362755 287.15983693 110.54710532 288.16186523 114.34204102 C289.4442899 119.19867316 290.73775054 124.05227376 292.03541088 128.90485477 C293.27609996 133.54623811 294.51131619 138.18907241 295.74609375 142.83203125 C295.98097189 143.71341326 296.21585003 144.59479527 296.45784569 145.50288582 C297.1235896 148.00512587 297.78543925 150.50836208 298.44604492 153.01196289 C298.73980011 154.11325027 298.73980011 154.11325027 299.03948975 155.23678589 C303.05627653 170.5319605 302.52192837 184.58632687 295.01953125 198.6953125 C290.38515504 206.13438911 284.28057074 212.00136429 276.515625 216.109375 C275.855625 216.109375 275.195625 216.109375 274.515625 216.109375 C274.83370117 217.27509033 274.83370117 217.27509033 275.15820312 218.46435547 C276.1132796 221.97032576 277.06449992 225.47733078 278.015625 228.984375 C278.34949219 230.20769531 278.68335938 231.43101562 279.02734375 232.69140625 C279.34316406 233.85800781 279.65898437 235.02460938 279.984375 236.2265625 C280.42426758 237.84473877 280.42426758 237.84473877 280.87304688 239.49560547 C281.515625 242.109375 281.515625 242.109375 281.515625 244.109375 C282.32 244.150625 283.124375 244.191875 283.953125 244.234375 C290.60092683 245.86716843 295.82784468 249.50331866 299.515625 255.296875 C303.70600886 262.67369659 303.90753126 271.95592693 301.71484375 280.07421875 C298.38178692 287.50773725 292.81575938 292.4360991 285.24679565 295.38134766 C281.25314235 296.5894725 277.24354121 297.65032905 273.19921875 298.671875 C271.63098598 299.08536548 270.06333008 299.50104884 268.49620056 299.91870117 C265.04945827 300.83435878 261.5998808 301.73817091 258.14813232 302.63476562 C252.1950135 304.18621789 246.25734937 305.79271915 240.32080078 307.40625 C230.4618343 310.08409383 220.59793306 312.74280925 210.72989845 315.38703918 C205.04233544 316.91118961 199.35554941 318.43809292 193.6706543 319.97216797 C188.05462482 321.487658 182.4368017 322.99631415 176.81762505 324.50009155 C174.70930159 325.06546392 172.60159168 325.63313013 170.49455452 326.20327759 C137.32762233 335.17161361 137.32762233 335.17161361 126.390625 329.484375 C118.61061606 323.05741109 114.24665916 316.81052144 113.140625 306.671875 C113.68416764 301.50821988 114.77336195 295.77463431 117.65509033 291.36625671 C118.9086539 288.07859753 118.05983619 286.03660197 117.13574219 282.66723633 C116.96268114 282.02066165 116.78962009 281.37408697 116.61131477 280.70791912 C116.02520273 278.53184049 115.41876463 276.36194923 114.8125 274.19140625 C114.38608958 272.62384491 113.9610045 271.05592254 113.53713989 269.4876709 C112.61549236 266.08831672 111.68493784 262.69157198 110.74749756 259.29653931 C109.25149633 253.87813163 107.77467597 248.4546183 106.30126953 243.0300293 C104.72954943 237.2469786 103.15643918 231.46432273 101.57681274 225.6834259 C97.47507798 210.66999735 93.42378492 195.64345569 89.3984375 180.609375 C89.10485352 179.51289831 88.81126953 178.41642162 88.50878906 177.28671837 C87.04401617 171.8151214 85.57998196 166.34332716 84.11633301 160.87142944 C82.41259875 154.50268883 80.70621077 148.13466146 78.99902344 141.7668457 C78.72824667 140.75680922 78.4574699 139.74677273 78.17848778 138.70612907 C77.64763498 136.72601466 77.11677363 134.74590253 76.58590317 132.76579285 C75.84751971 130.01163857 75.109165 127.2574766 74.37088013 124.5032959 C74.14231512 123.65073149 73.91375011 122.79816708 73.6782589 121.91976738 C73.23836773 120.27772902 72.79896957 118.63555849 72.36011696 116.99324226 C71.34935026 113.21136003 70.33222014 109.43150487 69.29840088 105.65585327 C69.10964449 104.9617419 68.9208881 104.26763052 68.72641182 103.55248547 C68.22148763 101.69679845 67.71295384 99.84209464 67.20413208 97.98747253 C66.515625 95.109375 66.515625 95.109375 66.515625 92.109375 C65.95875 92.08359375 65.401875 92.0578125 64.828125 92.03125 C58.88370205 91.58943478 54.66104451 90.02915267 49.515625 87.109375 C48.1855687 86.43619414 46.85306608 85.76776211 45.515625 85.109375 C43.96875 86.285 43.96875 86.285 42.390625 87.484375 C37.24679179 91.13784205 32.85083587 92.41105171 26.515625 92.109375 C26.4187439 92.722435 26.32186279 93.335495 26.2220459 93.96713257 C24.80480483 102.35663523 22.65111287 110.51004546 20.421875 118.7109375 C20.00197522 120.26905591 19.58249332 121.82728699 19.16339111 123.38562012 C18.25988098 126.74184589 17.35362594 130.09731354 16.44519043 133.45220947 C14.99575239 138.80531088 13.55251266 144.16007093 12.11035156 149.51513672 C10.56874674 155.23838166 9.02674496 160.96151807 7.48272705 166.68411255 C1.63514338 188.3580345 -4.17838794 210.04106887 -9.98950195 231.72479248 C-11.43646555 237.12366388 -12.88457613 242.52222684 -14.33309555 247.920681 C-15.42385243 251.98618729 -16.51404558 256.0518446 -17.60410309 260.11753845 C-18.11172704 262.01045136 -18.61956951 263.90330568 -19.1276474 265.7960968 C-19.82564062 268.39660999 -20.5227857 270.99734914 -21.21972656 273.59814453 C-21.42114006 274.34775766 -21.62255356 275.0973708 -21.8300705 275.86969948 C-22.20428082 277.26746968 -22.5759934 278.66591174 -22.94481659 280.06511307 C-23.32063163 281.48898927 -23.70343742 282.91103096 -24.0916214 284.33158493 C-25.27284206 288.37137639 -25.27284206 288.37137639 -24.83984375 292.46484375 C-24.45441406 293.06941406 -24.06898438 293.67398437 -23.671875 294.296875 C-20.6457843 299.53394779 -19.99457723 304.03588266 -20.484375 310.109375 C-22.93155621 318.93444299 -26.08487169 325.34461205 -34.171875 330.02734375 C-48.73853196 336.84316128 -66.5956132 329.1570854 -81.21484375 325.20703125 C-83.00358104 324.72748241 -84.79242752 324.24834069 -86.58137512 323.76957703 C-91.30912863 322.50297504 -96.03526476 321.23044309 -100.76098633 319.95628357 C-104.6567988 318.90646373 -108.5534037 317.85960235 -112.4500103 316.8127346 C-121.94306156 314.26228294 -131.43447038 311.70578223 -140.92504692 309.14613914 C-147.39607846 307.40140121 -153.86927546 305.66489727 -160.34358215 303.93235779 C-164.48946029 302.82197139 -168.63391448 301.70636648 -172.77774048 300.58834839 C-174.56396244 300.10726819 -176.35071714 299.62816113 -178.13803101 299.15115356 C-180.52600967 298.51311332 -182.91170092 297.86718225 -185.296875 297.21875 C-186.56144531 296.87811523 -187.82601562 296.53748047 -189.12890625 296.18652344 C-197.02354994 293.65224172 -203.1272279 289.9230643 -207.359375 282.734375 C-210.67970486 275.55644508 -210.92336232 267.13052223 -208.75 259.546875 C-205.50281677 252.52018341 -199.43611966 247.35720799 -192.484375 244.109375 C-191.164375 244.109375 -189.844375 244.109375 -188.484375 244.109375 C-188.23042969 243.00980469 -187.97648437 241.91023438 -187.71484375 240.77734375 C-185.79382472 232.50816195 -183.81257818 224.27572404 -181.484375 216.109375 C-182.58845703 215.70525391 -182.58845703 215.70525391 -183.71484375 215.29296875 C-193.40753915 211.15067438 -200.54338993 202.58634212 -204.8359375 193.1328125 C-209.28026076 181.27062594 -209.56012146 170.48632523 -206.5234375 158.28515625 C-206.30695557 157.39737991 -206.09047363 156.50960358 -205.86743164 155.59492493 C-202.63190455 142.46992047 -199.17322918 129.40051831 -195.69140625 116.33911133 C-194.87917186 113.28961512 -194.07495191 110.23816828 -193.27734375 107.18481445 C-192.2979349 103.43560203 -191.30536078 99.69011001 -190.30334473 95.94687843 C-189.92889164 94.53962027 -189.55889412 93.13116771 -189.19372559 91.72147179 C-184.74633235 74.58852386 -184.74633235 74.58852386 -177.421875 68.609375 C-168.58774613 64.35379464 -158.55913511 67.58694697 -149.734375 70.234375 C-146.40158583 71.28269065 -146.40158583 71.28269065 -142.484375 71.109375 C-141.64291544 68.02820073 -140.81264438 64.94411879 -139.984375 61.859375 C-139.74589844 60.98667969 -139.50742188 60.11398438 -139.26171875 59.21484375 C-139.03613281 58.37050781 -138.81054688 57.52617187 -138.578125 56.65625 C-138.36865234 55.88120117 -138.15917969 55.10615234 -137.94335938 54.30761719 C-137.34811608 51.83105643 -137.34811608 51.83105643 -137.484375 48.109375 C-138.87154669 46.6079027 -138.87154669 46.6079027 -140.734375 45.359375 C-145.58082655 41.50379715 -147.5615385 36.87788451 -149.484375 31.109375 C-150.26209804 21.30496484 -149.89555768 12.84490823 -143.75390625 4.859375 C-138.19705157 -1.17441531 -132.86315622 -4.5038697 -124.63671875 -5.23046875 C-113.17076987 -5.63867211 -113.17076987 -5.63867211 -108.296875 -2.890625 C-104.55143688 -1.46941837 -104.55143688 -1.46941837 -101.54296875 -3.296875 C-99.27963613 -4.72916105 -97.05749974 -6.18007678 -94.84375 -7.68359375 C-90.0529531 -10.92191944 -84.93357386 -13.00271358 -79.484375 -14.890625 C-78.58460938 -15.2103125 -77.68484375 -15.53 -76.7578125 -15.859375 C-50.26407339 -23.57183814 -21.46568622 -16.58127858 0 0 Z M-96.421875 13.984375 C-99.73323552 16.67220694 -102.04320313 18.31124645 -106.484375 18.109375 C-109.16715793 16.8007004 -111.35108066 15.20934575 -113.734375 13.421875 C-117.67172552 11.54268498 -121.19677837 11.40126013 -125.484375 12.109375 C-128.95306263 14.17582721 -131.29329472 16.21129409 -132.484375 20.109375 C-133.08635114 24.69944306 -133.21768415 27.77889159 -130.42553711 31.57788086 C-125.42084141 37.06177583 -117.8539711 38.0749639 -110.92578125 39.80078125 C-109.3318594 40.21796314 -107.73857528 40.63758804 -106.14588928 41.0594635 C-102.72571144 41.96113145 -99.3021587 42.84798907 -95.87530518 43.72393799 C-90.41574197 45.12174227 -84.96850145 46.5638336 -79.52294922 48.01513672 C-77.65450297 48.51252984 -75.78604383 49.00987452 -73.91757202 49.50717163 C-72.98567425 49.75523937 -72.05377647 50.00330711 -71.09363937 50.25889206 C-66.36252417 51.5165932 -61.62956148 52.76728395 -56.89648438 54.01757812 C-55.95643744 54.26607199 -55.0163905 54.51456585 -54.04785728 54.77058983 C-49.19188894 56.05361834 -44.33490104 57.33261844 -39.47631836 58.60571289 C-34.66680681 59.86629773 -29.86000295 61.13676379 -25.05487251 62.41394234 C-23.24692491 62.89248777 -21.43799492 63.36733828 -19.62806511 63.83833122 C-17.13217976 64.48821962 -14.63994925 65.15064484 -12.14819336 65.81616211 C-11.41137329 66.00473282 -10.67455322 66.19330353 -9.91540527 66.3875885 C-3.42764466 68.14653052 -3.42764466 68.14653052 -1.484375 71.109375 C-0.62646952 79.13973949 -2.84915454 86.252806 -5.01953125 93.9375 C-5.38196003 95.25751478 -5.74305635 96.57789605 -6.10289001 97.89862061 C-7.23822567 102.0557475 -8.39134423 106.20782353 -9.546875 110.359375 C-10.8903903 115.18812458 -12.22640482 120.01871548 -13.54434013 124.85451508 C-14.0733161 126.78076408 -14.6156599 128.70332601 -15.15821838 130.62579346 C-15.47862595 131.79761169 -15.79903351 132.96942993 -16.12915039 134.17675781 C-16.41560928 135.20440247 -16.70206818 136.23204712 -16.99720764 137.29083252 C-17.51532903 140.28846181 -17.37833276 142.21605466 -16.484375 145.109375 C-14.83064004 147.09971141 -14.83064004 147.09971141 -12.484375 148.109375 C-9.74468752 147.97573171 -8.13370417 147.60664277 -5.9488678 145.93345642 C-3.9549537 143.44996065 -3.42414079 141.12688634 -2.61499023 138.04907227 C-2.28131943 136.80090225 -1.94764862 135.55273224 -1.60386658 134.26673889 C-1.25014874 132.90310845 -0.89651826 131.53945535 -0.54296875 130.17578125 C-0.17192163 128.77690546 0.20015878 127.37830337 0.57322693 125.97996521 C1.55276318 122.29962202 2.52074803 118.61634667 3.4855957 114.93212891 C5.03069775 109.03820442 6.59117694 103.14835784 8.15559196 97.25953484 C8.69944154 95.2044609 9.23711381 93.14784372 9.77406311 91.09095764 C10.10458176 89.83963547 10.4351004 88.58831329 10.77563477 87.29907227 C11.0641481 86.19781509 11.35266144 85.09655792 11.6499176 83.96192932 C12.40760617 81.46530309 13.16511554 79.33616133 14.515625 77.109375 C17.27088118 75.73174691 19.692262 75.91966918 22.765625 75.796875 C28.31718434 75.40427854 31.46184063 74.94403589 35.515625 71.109375 C38.0546536 66.89830317 38.21873499 62.91110176 37.515625 58.109375 C35.37936675 54.52351295 33.38347004 52.59649473 29.515625 51.109375 C26.36994624 50.94251584 26.36994624 50.94251584 23.015625 51.109375 C15.31426141 51.39199385 15.31426141 51.39199385 12.515625 49.109375 C11.26055746 46.60509105 10.20795786 44.20961339 9.203125 41.609375 C6.38674724 34.76589022 3.14327666 28.92916175 -1.484375 23.109375 C-1.94199219 22.48933594 -2.39960938 21.86929688 -2.87109375 21.23046875 C-12.05164844 9.47199326 -27.86379955 1.30636708 -42.484375 -0.890625 C-62.65812449 -2.72354983 -80.37458474 0.91576236 -96.421875 13.984375 Z M121.515625 3.109375 C120.50628906 3.51027344 119.49695313 3.91117188 118.45703125 4.32421875 C100.98793039 12.16146166 89.37658579 26.46690441 82.515625 44.109375 C81.80869853 46.09550174 81.11639508 48.08860293 80.515625 50.109375 C76.07503965 50.68500643 71.80756263 51.17313939 67.328125 50.921875 C62.80735003 51.1442082 60.92242 52.189265 57.515625 55.109375 C55.16781359 58.09749862 55.09737419 61.32848688 55.1953125 65.078125 C55.72918636 68.46366658 57.32288598 70.55117948 59.515625 73.109375 C63.80810401 75.92903954 68.54371758 75.49288337 73.51953125 75.66796875 C76.87365017 76.16212186 77.45155906 76.56254241 79.515625 79.109375 C80.31077576 81.01170349 80.31077576 81.01170349 80.90795898 83.18530273 C81.13773941 84.00418472 81.36751984 84.82306671 81.60426331 85.66676331 C81.8418486 86.5540361 82.0794339 87.4413089 82.32421875 88.35546875 C82.58118027 89.28403183 82.83814178 90.21259491 83.10289001 91.16929626 C84.97529183 97.97925622 86.76190447 104.81225045 88.55078125 111.64453125 C89.30704776 114.520675 90.06349984 117.39676924 90.82055664 120.27270508 C91.33316367 122.23442227 91.83983597 124.19769825 92.34106445 126.16235352 C93.08161059 129.05695702 93.84517511 131.94463716 94.61328125 134.83203125 C94.83113785 135.70795425 95.04899445 136.58387726 95.27345276 137.48634338 C96.35548838 141.4749583 97.09329463 143.67655907 100.03295898 146.68920898 C102.41868957 148.3266087 102.41868957 148.3266087 105.140625 148.109375 C108.04756682 146.8853995 108.93377213 145.81841886 110.515625 143.109375 C110.56516015 140.67745055 110.56516015 140.67745055 109.90673828 138.11767578 C109.69583557 137.14461487 109.48493286 136.17155396 109.26763916 135.16900635 C108.01650968 130.07868333 106.67663046 125.02270256 105.2578125 119.9765625 C104.62591789 117.68369959 103.99441925 115.39072754 103.36328125 113.09765625 C102.37598933 109.5307137 101.38515906 105.96485453 100.38720703 102.40087891 C99.41721141 98.92883851 98.46159415 95.4530864 97.5078125 91.9765625 C97.2078537 90.92008514 96.9078949 89.86360779 96.59884644 88.77511597 C94.9448517 82.7054401 93.91797336 77.40614537 94.515625 71.109375 C96.53146401 68.47058429 98.40467557 67.59879303 101.56942749 66.76396179 C102.39303268 66.5413266 103.21663788 66.31869141 104.06520081 66.08930969 C104.96584763 65.85705185 105.86649445 65.62479401 106.79443359 65.38549805 C108.22215843 65.00427795 108.22215843 65.00427795 109.6787262 64.61535645 C112.83803508 63.7742973 116.00096601 62.94778333 119.1640625 62.12109375 C121.3741641 61.5353607 123.58400956 60.94866043 125.79360962 60.36103821 C131.63251418 58.81074176 137.47451077 57.27243722 143.31732178 55.73693848 C151.47917114 53.58972174 159.63674874 51.42632479 167.79483032 49.2648468 C172.13357499 48.11535423 176.47342298 46.97019114 180.81430054 45.82878113 C184.80027826 44.78024491 188.78239022 43.71864533 192.76190186 42.64584351 C196.65474313 41.59641632 200.55643666 40.59685058 204.46905518 39.62393188 C206.36058618 39.13260228 208.25193151 38.64055714 210.14306641 38.14770508 C211.00196157 37.94477939 211.86085674 37.74185369 212.74577904 37.53277874 C218.05858855 36.11071821 221.00604406 34.2164646 224.47159386 29.93053722 C226.47161591 26.4417863 226.14455906 24.07165959 225.515625 20.109375 C223.50059611 16.35725224 222.06096358 14.47293405 218.515625 12.109375 C213.81236236 11.33893579 210.36904861 11.62630503 206.203125 13.984375 C204.8728125 15.03625 204.8728125 15.03625 203.515625 16.109375 C200.90078173 17.82536589 199.89973688 18.13638709 196.73828125 17.9140625 C192.90866385 16.95781864 190.97905129 15.43436178 187.953125 12.921875 C181.86566513 8.18299844 175.72507431 4.92810706 168.515625 2.109375 C167.69320312 1.7690625 166.87078125 1.42875 166.0234375 1.078125 C152.27984893 -3.66407169 134.82538234 -2.25827682 121.515625 3.109375 Z M-120.484375 55.109375 C-123.36621382 65.84810415 -126.24777234 76.5869085 -129.12922668 87.32574081 C-129.85708573 90.03834329 -130.58497311 92.75093816 -131.31286621 95.46353149 C-137.13270591 117.15222497 -142.9495554 138.84171608 -148.76034927 160.53283501 C-149.65876988 163.88649351 -150.55726266 167.24013268 -151.45578003 170.59376526 C-152.04815744 172.80477887 -152.64053415 175.01579266 -153.23291016 177.22680664 C-153.52378698 178.3124846 -153.81466381 179.39816256 -154.11435509 180.51673985 C-155.85422753 187.01093004 -157.59355943 193.50526474 -159.33252907 199.99969673 C-160.42265631 204.07046753 -161.51325669 208.14111146 -162.6039772 212.21172333 C-163.11208836 214.1084313 -163.6199948 216.00519412 -164.12768173 217.90201569 C-164.82449721 220.50537683 -165.52202828 223.10854525 -166.21972656 225.71166992 C-166.42113943 226.46487487 -166.6225523 227.21807981 -166.83006859 227.99410915 C-167.0197452 228.70122571 -167.20942181 229.40834227 -167.40484619 230.1368866 C-167.58386726 230.80704992 -167.76288834 231.47721325 -167.94733429 232.16768456 C-168.47141805 234.06252868 -169.04808143 235.94258128 -169.62591553 237.82173157 C-170.39650966 240.77287698 -170.6676174 243.08587533 -170.484375 246.109375 C-158.35533093 249.36142596 -146.22622684 252.61325296 -134.09705162 255.86481476 C-128.46148295 257.3755923 -122.82593293 258.88643936 -117.19042969 260.39746094 C-116.10031963 260.68973572 -115.01020958 260.9820105 -113.88706589 261.28314209 C-111.70116253 261.86923398 -109.51527228 262.45537473 -107.32939529 263.04156494 C-101.96980036 264.47868377 -96.60987084 265.91453103 -91.24920654 267.34765625 C-74.06761624 271.94237312 -74.06761624 271.94237312 -66.02775383 274.14789581 C-63.17089045 274.93147105 -60.31257837 275.70967571 -57.45412064 276.4874115 C-55.58439704 276.99894714 -53.71712184 277.51940599 -51.84994507 278.04016113 C-50.76718292 278.33434937 -49.68442078 278.6285376 -48.56884766 278.93164062 C-47.64834625 279.18610962 -46.72784485 279.44057861 -45.77944946 279.70275879 C-43.33394503 280.32416423 -43.33394503 280.32416423 -40.484375 279.109375 C-39.61875586 277.39783668 -39.61875586 277.39783668 -39.11877441 275.24224854 C-38.89180374 274.40983139 -38.66483307 273.57741425 -38.4309845 272.71977234 C-38.19401352 271.79936661 -37.95704254 270.87896088 -37.71289062 269.93066406 C-37.32444221 268.48410179 -37.32444221 268.48410179 -36.92814636 267.00831604 C-36.0700462 263.80033671 -35.23027406 260.58785365 -34.390625 257.375 C-33.79780295 255.14284831 -33.20391609 252.91097917 -32.60900879 250.67938232 C-31.04027409 244.78213245 -29.48727092 238.88084398 -27.93707275 232.97869873 C-26.6777023 228.19431738 -25.40740563 223.41287207 -24.1364212 218.63156509 C-22.61333899 212.90117609 -21.09496694 207.16954363 -19.578125 201.4375 C-19.29169632 200.35529427 -19.00526764 199.27308853 -18.7101593 198.15808868 C-14.35847448 181.69244116 -14.35847448 181.69244116 -10.484375 165.109375 C-11.24685547 164.95114258 -12.00933594 164.79291016 -12.79492188 164.62988281 C-19.92284649 163.08472268 -24.6874709 160.64879742 -29.484375 155.109375 C-33.51602669 148.4766577 -34.47646648 142.02336288 -32.93969727 134.41149902 C-32.14833375 131.29053144 -31.29750125 128.19213308 -30.421875 125.09375 C-30.11113037 123.96036194 -29.80038574 122.82697388 -29.48022461 121.65924072 C-28.49117013 118.05656695 -27.48870358 114.45781788 -26.484375 110.859375 C-25.48183651 107.24619938 -24.48226063 103.63226957 -23.48852539 100.0166626 C-22.8708592 97.77143718 -22.24782985 95.52767883 -21.61889648 93.2855835 C-21.33860596 92.27062805 -21.05831543 91.25567261 -20.76953125 90.20996094 C-20.52082275 89.31919861 -20.27211426 88.42843628 -20.01586914 87.51068115 C-19.34030481 84.86836531 -19.34030481 84.86836531 -19.484375 81.109375 C-38.57782957 75.81989729 -57.68319785 70.5754291 -76.81126404 65.41242981 C-80.56674511 64.3987129 -84.3214775 63.38237641 -88.07470703 62.36035156 C-91.79599397 61.34708062 -95.51888411 60.33992212 -99.24301147 59.33714294 C-100.64059358 58.95972988 -102.0376014 58.58018299 -103.43399048 58.19837952 C-105.36325534 57.6713108 -107.29486351 57.15284223 -109.2265625 56.63476562 C-110.86407471 56.19130798 -110.86407471 56.19130798 -112.53466797 55.7388916 C-115.29273112 55.150275 -117.67669662 54.98244766 -120.484375 55.109375 Z M199.45849609 57.38842773 C198.55550278 57.63066071 197.65250946 57.87289368 196.72215271 58.12246704 C193.74280686 58.92331614 190.76595605 59.73305602 187.7890625 60.54296875 C185.71845314 61.10160055 183.64770112 61.65970382 181.57681274 62.21730042 C176.12831725 63.68598146 170.68192854 65.1623352 165.23590088 66.64013672 C160.78493387 67.846573 156.3325338 69.04766656 151.88004112 70.24845791 C142.68984409 72.72704007 133.500572 75.20907089 124.31396484 77.70092773 C123.46298721 77.93110092 122.61200958 78.16127411 121.73524475 78.39842224 C120.95583023 78.61015076 120.17641571 78.82187927 119.37338257 79.0400238 C118.35855081 79.31517901 118.35855081 79.31517901 117.32321739 79.59589291 C115.7070942 80.05498442 114.10947483 80.57809172 112.515625 81.109375 C113.20836586 87.0618527 114.62871698 92.68509317 116.203125 98.4609375 C116.46569092 99.43799652 116.72825684 100.41505554 116.9987793 101.42172241 C117.83387482 104.52699349 118.67443738 107.63074921 119.515625 110.734375 C120.35593964 113.84536804 121.19507277 116.95667151 122.0324707 120.06845093 C122.55254856 121.99997204 123.07444474 123.93100472 123.59838867 125.86148071 C123.83533447 126.73944305 124.07228027 127.6174054 124.31640625 128.52197266 C124.52434814 129.28917633 124.73229004 130.05638 124.9465332 130.84683228 C126.95528435 138.83304 127.41948637 145.66718235 123.515625 153.109375 C118.31577594 160.79410769 112.23836337 162.9869017 103.515625 165.109375 C106.35630252 177.5463708 109.51857413 189.8766404 112.83203125 202.1953125 C113.33501086 204.07274644 113.83776814 205.95023996 114.34031677 207.82778931 C115.65036971 212.71975269 116.96352434 217.61087809 118.27734375 222.50183105 C119.61074154 227.46812802 120.9409077 232.43529037 122.27148438 237.40234375 C123.77081295 242.99745596 125.27062788 248.59243755 126.7716217 254.18710327 C126.99885894 255.0344636 127.22609617 255.88182392 127.46021938 256.75486183 C127.89677825 258.37874319 128.33501467 260.00217472 128.77512455 261.62509727 C129.68452725 264.98118755 130.57097716 268.33546668 131.3979187 271.7131958 C131.6467984 272.71614685 131.8956781 273.7190979 132.15209961 274.75244141 C132.34895859 275.58772369 132.54581757 276.42300598 132.74864197 277.28359985 C133.12829857 278.18735855 133.12829857 278.18735855 133.515625 279.109375 C136.80802375 280.20684125 137.65388967 280.02995436 140.89332581 279.162323 C141.78857971 278.92691299 142.68383362 278.69150299 143.60621643 278.44895935 C144.58638229 278.18204788 145.56654816 277.91513641 146.57641602 277.64013672 C147.61108002 277.36546066 148.64574402 277.09078461 149.71176147 276.80778503 C153.14987575 275.89287979 156.58465319 274.96603708 160.01953125 274.0390625 C162.41574071 273.39871863 164.81214159 272.7590907 167.20872498 272.12014771 C172.89438323 270.60234862 178.57796121 269.07695274 184.2606315 267.54800808 C191.28288571 265.65920272 198.30853406 263.78312722 205.33398438 261.90625 C234.45645094 254.12386344 234.45645094 254.12386344 263.515625 246.109375 C262.95274518 241.01040752 262.15217183 236.21783711 260.82348633 231.25048828 C260.65339774 230.60880738 260.48330915 229.96712648 260.30806637 229.30600071 C259.74294662 227.17919005 259.17033256 225.05447477 258.59765625 222.9296875 C258.18788603 221.39390306 257.77857642 219.85799567 257.36968994 218.32197571 C256.26028485 214.15983047 255.14429794 209.99947579 254.02705765 205.83942795 C252.85147969 201.45782861 251.68186426 197.07463785 250.51147461 192.69165039 C248.28339652 184.35184599 246.04948663 176.01361537 243.81305599 167.67604733 C242.02797104 161.02097608 240.24479173 154.36539706 238.46289062 147.70947266 C226.08247029 101.38423495 226.08247029 101.38423495 213.515625 55.109375 C208.55582713 54.74406821 204.19100779 56.09094379 199.45849609 57.38842773 Z M-168.484375 84.109375 C-171.56479604 93.86756888 -174.35303415 103.68410554 -177.03125 113.55859375 C-177.23720039 114.31750223 -177.44315079 115.07641071 -177.6553421 115.85831642 C-178.7412506 119.86313017 -179.82371148 123.86885946 -180.90380859 127.87524414 C-181.79109706 131.16362782 -182.68561087 134.44991559 -183.58642578 137.73461914 C-184.68505073 141.74072998 -185.77120116 145.75003033 -186.84867096 149.76188087 C-187.25744171 151.27592827 -187.67042763 152.78884483 -188.08791351 154.30051231 C-191.4980386 166.66934963 -193.57904373 177.18656824 -187.484375 189.109375 C-184.35548665 193.57403007 -181.41119888 196.75486778 -176.484375 199.109375 C-173.12837207 188.58439518 -170.23191579 177.96068214 -167.38671875 167.2890625 C-166.90659525 165.49547587 -166.42624936 163.70194875 -165.94569397 161.90847778 C-164.69042282 157.22149 -163.43798316 152.53375044 -162.18621826 147.8458252 C-160.66796241 142.16197381 -159.14634659 136.47902121 -157.62524509 130.79593086 C-156.4413123 126.37230093 -155.25784883 121.94854737 -154.07591248 117.52438354 C-153.85871835 116.71190722 -153.64152422 115.89943089 -153.41774845 115.06233406 C-153.00041787 113.500392 -152.58365616 111.93829781 -152.16752529 110.37603569 C-150.81843885 105.32041219 -149.4210845 100.28027134 -147.96607971 95.25393677 C-147.33827076 92.82524776 -147.33827076 92.82524776 -147.484375 89.109375 C-154.47012924 86.81983664 -161.13424544 84.68585575 -168.484375 84.109375 Z M253.40625 85.203125 C252.27509766 85.54150391 252.27509766 85.54150391 251.12109375 85.88671875 C250.34378906 86.12519531 249.56648438 86.36367187 248.765625 86.609375 C247.97285156 86.84785156 247.18007813 87.08632812 246.36328125 87.33203125 C244.41258343 87.91959084 242.46390043 88.51383229 240.515625 89.109375 C241.13017066 95.07021247 242.30137674 100.63633112 243.87646484 106.41186523 C244.11563126 107.30565887 244.35479767 108.19945251 244.60121155 109.12033081 C245.38776921 112.05430976 246.18199739 114.98614914 246.9765625 117.91796875 C247.52884382 119.9699519 248.08072757 122.0220421 248.63223267 124.07423401 C249.78730624 128.36785755 250.94596892 132.6604904 252.10742188 136.95239258 C253.59123945 142.43598227 255.06798006 147.92144569 256.54225731 153.40760708 C257.6811043 157.64368449 258.82277573 161.87899645 259.96538162 166.11406136 C260.51060939 168.13556646 261.05519232 170.15724561 261.59910202 172.17910576 C262.36202263 175.0126413 263.12851146 177.84518797 263.89599609 180.67749023 C264.11740768 181.50218307 264.33881927 182.32687592 264.56694031 183.17655945 C266.02983627 188.55566805 267.69955604 193.83918684 269.515625 199.109375 C277.22003266 195.42747284 280.99488565 189.02735666 283.88671875 181.2109375 C286.14451494 170.07621592 282.68085305 159.94134834 279.73828125 149.265625 C279.24639698 147.44652777 278.75556399 145.62714599 278.26573181 143.80749512 C276.98022756 139.04430079 275.67937957 134.2854269 274.37554932 129.52722168 C273.31051266 125.63015757 272.256534 121.73014366 271.20308781 117.82993317 C269.94761967 113.18251021 268.68745523 108.53636662 267.42578125 103.890625 C267.18484301 103.00313065 266.94390476 102.11563629 266.69566536 101.20124817 C266.01585285 98.70182942 265.33288356 96.20329839 264.64868164 93.70507812 C264.44656067 92.96121857 264.2444397 92.21735901 264.03619385 91.45095825 C263.01800984 87.69145426 263.01800984 87.69145426 261.515625 84.109375 C258.2398836 84.109375 256.41553344 84.29122093 253.40625 85.203125 Z M-191.484375 264.109375 C-193.03461964 267.20986428 -192.77429515 269.68831718 -192.484375 273.109375 C-190.37003108 276.91805773 -188.23426227 278.43386545 -184.21264648 279.76416016 C-182.36973229 280.28637496 -180.52084139 280.78773801 -178.66796875 281.2734375 C-177.1111161 281.70422104 -177.1111161 281.70422104 -175.52281189 282.14370728 C-172.51996361 282.96835619 -169.51286462 283.77475143 -166.50283051 284.57270813 C-164.39706477 285.13258904 -162.29299468 285.69849106 -160.18927002 286.26599121 C-149.51475544 289.14516483 -138.82851821 291.97905159 -128.1385498 294.80023193 C-121.31383206 296.60180184 -114.4903843 298.40816806 -107.66715622 300.21537018 C-105.15864613 300.87907795 -102.64962095 301.54081042 -100.14053345 302.20233154 C-92.05856542 304.33712681 -83.99110677 306.51247355 -75.94482422 308.77832031 C-74.42641752 309.20320531 -72.90798045 309.62798178 -71.38951111 310.05264282 C-68.57914875 310.83896772 -65.77357421 311.6399441 -62.96998596 312.45004272 C-56.2887393 314.32277145 -50.4326597 315.80182346 -43.484375 315.109375 C-40.38993978 312.85301599 -38.93113562 311.19835402 -37.484375 307.671875 C-37.484375 304.04084671 -38.46147795 302.1110932 -40.484375 299.109375 C-44.56067309 296.76076237 -48.5786596 295.38064205 -53.11401367 294.18676758 C-53.75277781 294.01665287 -54.39154196 293.84653816 -55.04966259 293.67126846 C-57.1656493 293.10933308 -59.28394869 292.55668657 -61.40234375 292.00390625 C-62.91566125 291.60368417 -64.4288106 291.20282578 -65.94180298 290.80137634 C-70.00741207 289.72419282 -74.07499796 288.65466407 -78.14300919 287.58659363 C-84.93768009 285.80059759 -91.72863518 284.00047432 -98.52018547 282.20265579 C-100.24565327 281.7460354 -101.97119513 281.28969479 -103.69680977 280.83362961 C-115.60213622 277.68702864 -127.49216021 274.48950921 -139.3671875 271.23046875 C-140.7508046 270.85137303 -142.13443579 270.47232872 -143.51808167 270.09333801 C-148.71173803 268.66998409 -153.90499414 267.2453567 -159.09432983 265.80630493 C-162.60412308 264.83319483 -166.11624952 263.86896252 -169.62890625 262.90625 C-170.65045807 262.61975082 -171.67200989 262.33325165 -172.72451782 262.03807068 C-182.82170298 259.1286812 -182.82170298 259.1286812 -191.484375 264.109375 Z M258.76171875 263.7890625 C257.28525656 264.19396461 255.80841911 264.59750046 254.33123779 264.99977112 C250.3580697 266.08559115 246.39004473 267.18917233 242.42284775 268.29658127 C238.28814081 269.44805688 234.14949137 270.58516543 230.01098633 271.72290039 C224.92011958 273.12292504 219.82949959 274.52377789 214.74064636 275.93110657 C204.18954704 278.84598387 193.62202772 281.68877557 183.03254509 284.46089172 C180.80777363 285.04383147 178.5836459 285.62915916 176.35975647 286.2154541 C175.64282592 286.40444904 174.92589537 286.59344398 174.18723965 286.78816605 C172.76641036 287.16280097 171.34560128 287.53751251 169.92481327 287.91230392 C166.48428696 288.81878419 163.04236448 289.71911406 159.59689331 290.60662842 C155.78759917 291.5880963 151.98552959 292.59585371 148.18359375 293.60546875 C147.06619812 293.88806046 145.94880249 294.17065216 144.79754639 294.46180725 C138.99651017 296.02494246 135.18614048 297.23735106 131.515625 302.109375 C130.09560621 305.5706708 130.38619878 306.77933814 131.765625 310.296875 C133.37373382 313.31335379 133.37373382 313.31335379 136.515625 315.109375 C145.49930839 316.08813735 153.93297105 313.1562522 162.50390625 310.7890625 C164.18914063 310.33265407 165.87465366 309.87727342 167.5604248 309.42285156 C172.05846706 308.20738604 176.55267092 306.97828177 181.04614639 305.7460556 C185.68923831 304.47481899 190.3353112 303.21457816 194.98120117 301.95361328 C200.55725298 300.43959231 206.13300854 298.92452738 211.70722961 297.40377808 C221.93097894 294.61575402 232.16245893 291.86203994 242.4130497 289.17434311 C245.48144766 288.36927183 248.54859595 287.55946261 251.6159668 286.75048828 C254.94051723 285.87379819 258.26572181 285.00051497 261.59439087 284.1395874 C264.57768773 283.36714492 267.55669124 282.57989497 270.53515625 281.7890625 C271.38646118 281.57330566 272.23776611 281.35754883 273.11486816 281.13525391 C277.74385466 279.888795 281.00036411 278.54787223 284.515625 275.109375 C286.06586964 272.00888572 285.80554515 269.53043282 285.515625 266.109375 C284.17447101 263.09957617 284.17447101 263.09957617 281.515625 261.109375 C273.59227998 258.99560575 266.41056209 261.62953365 258.76171875 263.7890625 Z " fill="#F49B14" transform="translate(209.484375,157.890625)"/>
<path d="M0 0 C4.66696439 3.48377377 5.51898018 7.99951018 6.96875 13.3671875 C7.39903503 14.90039139 7.39903503 14.90039139 7.8380127 16.46456909 C8.70324399 19.56929545 9.5537299 22.67770201 10.39819336 25.78813171 C11.04701106 28.17278352 11.70081381 30.55603116 12.35546875 32.93908691 C15.55512191 44.59332721 18.70800128 56.25968999 21.83691406 67.93310547 C22.95308272 72.09515168 24.07652431 76.25513466 25.20605469 80.41357422 C26.58650457 85.49582164 27.95510387 90.58111712 29.31507874 95.66888046 C29.83089761 97.59088977 30.35081541 99.51180409 30.87498474 101.43155289 C31.601915 104.09745241 32.31349362 106.76700649 33.02148438 109.43798828 C33.23850006 110.22027802 33.45551575 111.00256775 33.67910767 111.80856323 C34.8255511 116.20798156 35.24146315 119.50219098 34 124 C32.4375 126.375 32.4375 126.375 30 128 C27.224459 128.55852776 24.74476806 128.72907902 22 128 C18.17122517 124.89175663 17.11590957 122.04952355 15.86865234 117.34008789 C15.68905975 116.67717239 15.50946716 116.0142569 15.32443237 115.33125305 C14.73197427 113.13162715 14.15903336 110.92739883 13.5859375 108.72265625 C13.16841214 107.15759089 12.7496551 105.59285365 12.32974243 104.02842712 C11.22012368 99.8815513 10.12680441 95.73054739 9.0369873 91.57843018 C7.96482931 87.50361691 6.87865273 83.43255448 5.79296875 79.36132812 C4.4983892 74.50490848 3.20638171 69.64787467 1.92669678 64.7875061 C-0.28799037 56.38302089 -2.54511605 47.99313339 -4.87792969 39.62060547 C-5.57641692 37.09789137 -6.27422007 34.5749888 -6.97193527 32.05206108 C-7.41714964 30.45221182 -7.86644692 28.85349224 -8.32014847 27.25602913 C-12.7671046 11.5957694 -12.7671046 11.5957694 -12 4 C-9.33965416 -0.54475748 -4.91183732 -1.30470679 0 0 Z " fill="#F07A1D" transform="translate(416,249)"/>
<path d="M0 0 C2.5 1.4375 2.5 1.4375 4 4 C4.81232756 12.6472096 2.27668274 20.52252513 -0.0234375 28.765625 C-0.4488944 30.32294674 -0.87332021 31.88055049 -1.29678345 33.43841553 C-2.4172953 37.55003851 -3.55128624 41.65782209 -4.68835449 45.76489258 C-5.80384921 49.80209107 -6.90757603 53.84249736 -8.01171875 57.8828125 C-9.32843648 62.70027592 -10.64754377 67.5170148 -11.97894287 72.33044434 C-14.29629921 80.71680883 -16.56347091 89.11298807 -18.75488281 97.53320312 C-19.42556249 100.08942006 -20.09726921 102.64536488 -20.76930618 105.20122528 C-21.19540225 106.8339881 -21.61659412 108.46803949 -22.03260422 110.10340118 C-22.60808186 112.36493338 -23.20001429 114.6215735 -23.79541016 116.87792969 C-23.95974674 117.54350136 -24.12408333 118.20907303 -24.29339981 118.89481354 C-25.38544522 122.9525577 -26.70505158 125.36685465 -30 128 C-32.74476806 128.72907902 -35.224459 128.55852776 -38 128 C-40.98346509 126.01102327 -41.80780755 124.74961929 -42.69538879 121.28773499 C-43.05064669 117.45335924 -42.44326503 114.73547499 -41.4362793 111.02124023 C-41.25741684 110.34827911 -41.07855438 109.67531799 -40.89427185 108.98196411 C-40.29908025 106.75423747 -39.68673661 104.53161313 -39.07421875 102.30859375 C-38.64728443 100.7245733 -38.22142857 99.14026183 -37.79658508 97.55567932 C-36.66856158 93.36000313 -35.52599524 89.16842167 -34.38031006 84.97753906 C-33.25733333 80.86038641 -32.14764855 76.73966202 -31.03710938 72.61914062 C-29.49160823 66.88900413 -27.93883465 61.16092964 -26.37729073 55.43514442 C-24.52955897 48.65926878 -22.69685555 41.88002646 -20.901618 35.09002972 C-19.99513041 31.66163759 -19.08334437 28.23466282 -18.17148781 24.80769539 C-17.74102439 23.1834202 -17.31327394 21.5584233 -16.88840294 19.93267632 C-16.30079627 17.68506376 -15.70376395 15.44014777 -15.10473633 13.19555664 C-14.76952469 11.92265274 -14.43431305 10.64974884 -14.08894348 9.33827209 C-13.05510245 6.16892243 -11.91947758 3.71546998 -10 1 C-6.78897726 -0.60551137 -3.48300792 -0.46807221 0 0 Z " fill="#F9BC0B" transform="translate(104,249)"/>
<path d="M0 0 C2.5 1.4375 2.5 1.4375 4 4 C4.82681176 10.63992598 3.3263176 16.77707331 1.5690918 23.13452148 C1.31056427 24.10488342 1.05203674 25.07524536 0.78567505 26.07501221 C-0.06577385 29.2600233 -0.93308368 32.44047462 -1.80078125 35.62109375 C-2.39988102 37.84846666 -2.9980257 40.07609667 -3.59526062 42.30397034 C-5.16724728 48.15700797 -6.75293573 54.00624975 -8.34130859 59.8548584 C-9.63153664 64.61439875 -10.91230842 69.37645801 -12.19251728 74.13870144 C-14.84547145 84.00714867 -17.50478934 93.87389173 -20.1809082 103.73608398 C-20.42259232 104.63041641 -20.66427643 105.52474884 -20.9132843 106.44618225 C-21.59881174 108.96703571 -22.2965222 111.48410124 -23 114 C-23.25102163 114.91313524 -23.50204327 115.82627048 -23.76067162 116.76707649 C-24.01509844 117.66149389 -24.26952526 118.55591129 -24.53166199 119.47743225 C-24.75783298 120.28248734 -24.98400396 121.08754244 -25.21702862 121.91699314 C-26.42209259 125.12292963 -27.98806823 126.45901165 -31 128 C-34.73175586 128.62195931 -36.49160462 128.25419769 -39.875 126.5625 C-42.37135216 123.55219298 -42.43844024 121.79734884 -42.33886719 117.96737671 C-41.55876796 111.13623942 -39.498365 104.51100738 -37.6875 97.89453125 C-37.23485377 96.20832816 -36.78321403 94.52185459 -36.33251953 92.83512878 C-35.14206281 88.39046996 -33.93827134 83.94953186 -32.73150635 79.50927734 C-31.53585559 75.10138137 -30.3522494 70.69025862 -29.16796875 66.27929688 C-27.77845459 61.1062942 -26.3868587 55.93389263 -24.98510742 50.76419067 C-22.83409592 42.8295937 -20.70039792 34.89184784 -18.6328125 26.93505859 C-18.26655342 25.53282223 -17.90018295 24.13061495 -17.53369141 22.72843933 C-16.86349442 20.16392647 -16.20319389 17.5975514 -15.54833984 15.02900696 C-15.2539502 13.9027037 -14.95956055 12.77640045 -14.65625 11.6159668 C-14.40681641 10.64507614 -14.15738281 9.67418549 -13.90039062 8.6738739 C-11.32544958 1.02711764 -8.05234418 -1.08213321 0 0 Z " fill="#F8B60D" transform="translate(148,261)"/>
<path d="M0 0 C4.29472029 3.30470013 5.30909972 7.34829804 6.6171875 12.3828125 C6.86201874 13.2804129 7.10684998 14.17801331 7.35910034 15.10281372 C8.25326259 18.39828279 9.12588506 21.69915804 10 25 C10.56067947 27.08982269 11.12356095 29.17904446 11.68666458 31.26821518 C14.29652041 40.95121905 16.87578191 50.64226947 19.45007324 60.33477783 C20.57602115 64.57250853 21.70411094 68.80966893 22.83203125 73.046875 C24.10577869 77.832506 25.37931581 82.61819232 26.65139771 87.40426636 C26.84387022 88.12822664 27.03634274 88.85218693 27.23464775 89.5980854 C27.61068561 91.01352654 27.98624259 92.42909553 28.36128426 93.84480095 C29.27898358 97.30582517 30.2064292 100.76372356 31.15252686 104.21710205 C31.33707365 104.89535601 31.52162045 105.57360996 31.71175957 106.27241707 C32.21517277 108.12051885 32.72253922 109.9675425 33.23019409 111.81448364 C34.29294358 116.21222316 34.66262332 119.5088864 34 124 C31.45528778 127.06862356 29.91058019 127.84823663 26 128.5 C21.98675379 127.83112563 20.80461629 127.01296539 18 124 C16.39705932 120.07208607 15.42926081 116.00185056 14.40625 111.890625 C13.8958215 109.94244713 13.38532867 107.99428548 12.87300873 106.04660416 C12.31109524 103.9017947 11.75699689 101.75505317 11.203125 99.6081543 C9.94369201 94.75366591 8.62503629 89.91615032 7.296875 85.08007812 C7.06223541 84.2256588 6.82759583 83.37123947 6.58584595 82.49092865 C6.34820526 81.62561775 6.11056458 80.76030685 5.86572266 79.86877441 C4.14083552 73.58780333 2.43891411 67.30067011 0.73849487 61.01303864 C-0.51481436 56.38034702 -1.77251318 51.74894135 -3.04003906 47.12011719 C-4.2911754 42.55061076 -5.53119092 37.97821981 -6.76350403 33.4036026 C-7.22844918 31.68507403 -7.69726451 29.96758718 -8.17021179 28.25124359 C-8.8265918 25.86651981 -9.46857733 23.47833905 -10.10742188 21.08886719 C-10.30056976 20.40002441 -10.49371765 19.71118164 -10.69271851 19.00146484 C-11.99775237 14.03532366 -12.56492088 9.13053009 -12 4 C-9.33965416 -0.54475748 -4.91183732 -1.30470679 0 0 Z " fill="#F1851A" transform="translate(372,261)"/>
<path d="M0 0 C1.9375 0.3515625 1.9375 0.3515625 4.375 2.0390625 C6.18402666 4.71642195 6.86213103 6.1106967 6.9375 9.3515625 C4.38192331 16.37700553 0.41849112 22.71311282 -3.3125 29.1640625 C-4.02208666 30.39640643 -4.73139228 31.62891223 -5.44042969 32.86157227 C-6.90761253 35.41108993 -8.37703842 37.95929836 -9.84765625 40.50683594 C-11.66421387 43.65629371 -13.46998551 46.81175607 -15.27081299 49.9702301 C-16.29588027 51.76773156 -17.32287034 53.56411902 -18.35058594 55.36010742 C-19.63266245 57.60086957 -20.91207588 59.8431581 -22.18847656 62.0871582 C-22.77081055 63.10124756 -23.35314453 64.11533691 -23.953125 65.16015625 C-24.45875977 66.04501709 -24.96439453 66.92987793 -25.48535156 67.84155273 C-29.81104631 74.72583565 -29.81104631 74.72583565 -33.0625 76.3515625 C-39.19886364 76.91974432 -39.19886364 76.91974432 -42.4375 74.7890625 C-44.55775627 71.6086781 -45.44519094 69.13376889 -45.0625 65.3515625 C-43.35491033 61.16207422 -41.06554526 57.3556131 -38.75 53.4765625 C-38.10498535 52.36321533 -37.4599707 51.24986816 -36.79541016 50.1027832 C-34.90140022 46.84208094 -32.98396405 43.59613767 -31.0625 40.3515625 C-30.14790635 38.78101405 -29.23490628 37.20953539 -28.32421875 35.63671875 C-26.36346553 32.26104574 -24.37559009 28.90258815 -22.37353516 25.55126953 C-20.87050194 23.02942051 -19.37890098 20.50093991 -17.88671875 17.97265625 C-16.79986844 16.14039404 -15.71263449 14.30835933 -14.625 12.4765625 C-14.11630371 11.61313232 -13.60760742 10.74970215 -13.08349609 9.86010742 C-12.60348145 9.05549072 -12.1234668 8.25087402 -11.62890625 7.421875 C-11.20552979 6.70789551 -10.78215332 5.99391602 -10.34594727 5.25830078 C-7.38372792 0.85751457 -5.54680608 -0.22431936 0 0 Z " fill="#EC5F25" transform="translate(364.0625,49.6484375)"/>
<path d="M0 0 C3.97118782 2.7016004 6.14061767 5.42907548 8.4609375 9.6015625 C9.09032227 10.71958252 9.71970703 11.83760254 10.36816406 12.98950195 C11.03719323 14.20128834 11.70613653 15.41312214 12.375 16.625 C13.07404207 17.87328649 13.77425472 19.12091812 14.47558594 20.36791992 C15.56016448 22.29706173 16.64379674 24.2266847 17.72351074 26.15855408 C21.49966163 32.91488699 25.37092095 39.61489964 29.25 46.3125 C31.01001081 49.35759806 32.76972137 52.40278586 34.52148438 55.45263672 C35.43229456 57.02188927 36.35768583 58.58291027 37.30664062 60.12939453 C40.60133469 65.55179164 40.60133469 65.55179164 40 69.25 C39 73 39 73 37.4375 75 C33.97430424 76.42079826 30.57462108 77.17822706 27 76 C22.25215238 71.24436902 19.27720022 65.4769716 16.0625 59.625 C14.91814269 57.57079162 13.77225685 55.51743416 12.625 53.46484375 C12.03332031 52.40507324 11.44164062 51.34530273 10.83203125 50.25341797 C7.79805839 44.86552852 4.68353812 39.52529155 1.5625 34.1875 C0.9960376 33.21699707 0.4295752 32.24649414 -0.15405273 31.24658203 C-0.70005127 30.31313965 -1.2460498 29.37969727 -1.80859375 28.41796875 C-2.33525635 27.51626953 -2.86191895 26.61457031 -3.40454102 25.68554688 C-4.48810123 23.86165057 -5.59366121 22.05068183 -6.71850586 20.25195312 C-7.2625708 19.37861328 -7.80663574 18.50527344 -8.3671875 17.60546875 C-8.85687012 16.83485107 -9.34655273 16.0642334 -9.85107422 15.27026367 C-11.73018594 11.55716127 -12.08740482 8.01440427 -11 4 C-7.77123438 0.10648852 -4.96361941 -0.8272699 0 0 Z " fill="#F1821B" transform="translate(153,50)"/>
<path d="M0 0 C2.39445098 3.59167647 2.30247257 6.19564719 2.30639648 10.34545898 C2.31888176 11.46301575 2.31888176 11.46301575 2.33161926 12.60314941 C2.35572709 15.06751723 2.36449164 17.5316205 2.37109375 19.99609375 C2.38005858 21.70858338 2.3891804 23.42107219 2.39845276 25.13356018 C2.41494678 28.7239065 2.42264377 32.31415951 2.42553711 35.90454102 C2.43092541 40.50615221 2.46862141 45.10688741 2.51428127 49.708251 C2.54401494 53.24529733 2.55125983 56.78213161 2.55226326 60.31929207 C2.55647194 62.01579875 2.56893225 63.7123057 2.58978081 65.4086895 C2.61662418 67.78149877 2.611893 70.15226317 2.59936523 72.52514648 C2.61419952 73.22605911 2.62903381 73.92697174 2.64431763 74.64912415 C2.58894285 78.33024743 2.24491187 79.74612858 -0.34996033 82.43592834 C-3.61298322 84.36178692 -5.26863293 84.62189451 -9 84 C-11.64805603 82.43493652 -11.64805603 82.43493652 -14 80 C-14.50133221 77.30469851 -14.67612423 75.23382455 -14.63110352 72.54101562 C-14.63825882 71.79583176 -14.64541412 71.05064789 -14.65278625 70.28288269 C-14.6696743 67.82337857 -14.65027231 65.36569711 -14.62890625 62.90625 C-14.62973495 61.1951889 -14.63219437 59.48412787 -14.63621521 57.77307129 C-14.63907326 54.1884767 -14.62437192 50.60450693 -14.59692383 47.02001953 C-14.56284054 42.42630404 -14.5688589 37.8337058 -14.5875864 33.23993683 C-14.59815743 29.70711971 -14.58921774 26.17456237 -14.57420158 22.64176941 C-14.56902003 20.94810253 -14.56950127 19.25440853 -14.57574654 17.56074524 C-14.5812002 15.19289874 -14.56082142 12.8266489 -14.53344727 10.45898438 C-14.53997314 9.75964279 -14.54649902 9.06030121 -14.55322266 8.33976746 C-14.48777442 5.00879655 -14.20740711 3.27008926 -12.15415955 0.59631348 C-7.7065302 -2.69954763 -4.99265729 -1.81551174 0 0 Z " fill="#EE6C22" transform="translate(262,23)"/>
<path d="M0 0 C4.32705351 2.80274588 5.75520932 5.00941633 7.02734375 9.9609375 C7.341875 11.14469971 7.65640625 12.32846191 7.98046875 13.5480957 C8.29628906 14.81097412 8.61210937 16.07385254 8.9375 17.375 C9.27694836 18.68167587 9.61811027 19.98790773 9.9609375 21.29370117 C10.651857 23.93107485 11.33401026 26.5705045 12.01123047 29.21142578 C12.91247262 32.66462965 13.86281632 36.09720013 14.84765625 39.52734375 C15.26833374 41.00291748 15.26833374 41.00291748 15.69750977 42.50830078 C16.21661266 44.32223927 16.74146034 46.13454782 17.27319336 47.94482422 C18.72852013 53.13577917 19.4355856 57.60227029 19 63 C16.55871269 66.44652326 15.17033126 67.78056289 11 68.5625 C7.15319337 67.84122376 5.75771692 66.79235073 3 64 C1.68329899 61.13892968 0.95007793 58.17415719 0.1875 55.125 C-0.0511377 54.22749023 -0.28977539 53.32998047 -0.53564453 52.40527344 C-1.06825477 50.39797545 -1.59354244 48.38872499 -2.11279297 46.37792969 C-2.91363751 43.32881438 -3.74780297 40.29090796 -4.59971619 37.25570679 C-5.34904469 34.58445034 -6.08785938 31.910342 -6.82528687 29.23577881 C-7.18835619 27.92423045 -7.55452979 26.61353701 -7.92398071 25.30377197 C-9.95213176 18.08433454 -11.71716987 11.52248836 -11 4 C-7.77123438 0.10648852 -4.96361941 -0.8272699 0 0 Z " fill="#F49416" transform="translate(343,333)"/>
<path d="M0 0 C2.875 1.4375 2.875 1.4375 5 4 C5.55345259 11.23787024 4.17138568 17.45875192 2.296875 24.421875 C2.01781311 25.48488831 1.73875122 26.54790161 1.45123291 27.64312744 C0.86152327 29.87666965 0.26619096 32.10873415 -0.33447266 34.33935547 C-1.24977709 37.74916959 -2.13958149 41.16495626 -3.02734375 44.58203125 C-3.60524984 46.75821698 -4.18462662 48.93401281 -4.765625 51.109375 C-5.16119598 52.6360379 -5.16119598 52.6360379 -5.5647583 54.19354248 C-6.94996396 59.26397259 -8.13576409 63.21819065 -12 67 C-14.88861709 68.44430855 -16.79647701 68.37688506 -20 68 C-22.875 66 -22.875 66 -25 63 C-25.5886876 56.2341118 -24.05959063 50.38748842 -22.26171875 43.89453125 C-21.98028519 42.85229904 -21.69885162 41.81006683 -21.40888977 40.73625183 C-20.81433655 38.54394913 -20.21481199 36.35298926 -19.6105957 34.16333008 C-18.68851174 30.8161726 -17.78554602 27.46427384 -16.88476562 24.11132812 C-16.30321349 21.97625435 -15.72056841 19.8414779 -15.13671875 17.70703125 C-14.73340584 16.20847343 -14.73340584 16.20847343 -14.32194519 14.67964172 C-9.90760726 -1.18891287 -9.90760726 -1.18891287 0 0 Z " fill="#F8B70C" transform="translate(175,333)"/>
</svg>
