<?xml version="1.0" encoding="UTF-8"?>
<svg version="1.1" xmlns="http://www.w3.org/2000/svg" width="512" height="512">
<path d="M0 0 C7.60318441 4.08136306 10.69667106 11.36508012 14.4296875 18.71875 C18.47663384 26.5886764 22.59713914 34.40509149 26.8671875 42.15625 C31.7339754 51.00879686 36.41668095 59.9470355 41.05200195 68.92260742 C45.27564624 77.07898334 49.62974644 85.15757298 54.06054688 93.203125 C54.52525391 94.04746094 54.98996094 94.89179688 55.46875 95.76171875 C55.87303223 96.49285889 56.27731445 97.22399902 56.69384766 97.97729492 C57.9296875 100.28125 57.9296875 100.28125 58.87394714 103.27664185 C61.15885948 106.61620086 61.6070311 106.80968201 65.3367157 107.7039032 C67.23884117 108.04955484 69.14646316 108.36571244 71.05737305 108.65893555 C72.09834641 108.84031067 73.13931976 109.02168579 74.21183777 109.20855713 C77.65964144 109.80316947 81.11246007 110.36024877 84.56640625 110.91796875 C86.96477375 111.3256488 89.36270424 111.7359074 91.76020813 112.14863586 C98.08112823 113.23070351 104.406744 114.28217609 110.73406982 115.3260498 C120.84515693 116.99954986 130.94838637 118.71985737 141.05182838 120.43879128 C144.5777698 121.03433168 148.10559529 121.6174017 151.63395691 122.19841003 C153.80768538 122.56263125 155.98137808 122.92706603 158.1550293 123.29174805 C159.13143372 123.44919998 160.10783813 123.60665192 161.11383057 123.76887512 C169.23380742 125.14665953 176.4922674 126.60099103 181.9296875 133.28125 C184.85360071 137.81835671 185.81691461 141.95409034 184.9296875 147.28125 C182.61604849 154.0148706 178.19457231 158.48047248 173.1171875 163.28125 C167.15128005 169.01695867 167.15128005 169.01695867 161.57421875 175.125 C156.30186848 181.26445891 150.42670461 186.82662352 144.66796875 192.50390625 C140.80489931 196.3335292 136.97656801 200.13981444 133.4375 204.2734375 C129.01723074 209.43520498 124.14072099 214.13794807 119.3046875 218.90625 C116.58617624 221.58700416 113.87526191 224.27100374 111.20214844 226.99707031 C108.9296875 229.28125 108.9296875 229.28125 107.13378906 230.80761719 C105.43229395 232.248947 105.43229395 232.248947 103.9296875 235.28125 C103.6750249 245.60866596 105.96699691 256.31786179 107.44296455 266.51217842 C107.88027226 269.53612487 108.31153279 272.56088061 108.74119568 275.58592224 C109.96234313 284.1772518 111.19256077 292.76726385 112.43041992 301.35620117 C113.19080642 306.63513666 113.94298422 311.91519069 114.69025993 317.19599724 C114.97457211 319.19332423 115.26198924 321.19021202 115.55270576 323.1866169 C119.83171092 352.581818 119.83171092 352.581818 114.9296875 359.28125 C110.50235496 363.9194079 106.36721272 365.92509714 99.9296875 366.28125 C92.33069753 364.88781428 85.53283822 361.31147381 78.7421875 357.78125 C70.96261713 353.77811642 63.12905209 349.92943261 55.2265625 346.17578125 C46.82282005 342.18193071 38.48379304 338.0758415 30.17578125 333.88671875 C26.98085316 332.28576907 23.78509277 330.6864922 20.58911133 329.08764648 C18.40751453 327.99147551 16.22920894 326.88873396 14.05395508 325.7800293 C10.85347337 324.15127399 7.6412854 322.54806578 4.42578125 320.94921875 C3.45708603 320.44843307 2.48839081 319.9476474 1.49034119 319.4316864 C-3.71011951 316.77933928 -3.71011951 316.77933928 -9.38476562 316.82373047 C-10.27099609 317.30471191 -11.15722656 317.78569336 -12.0703125 318.28125 C-12.96226318 318.69238037 -13.85421387 319.10351074 -14.77319336 319.52709961 C-15.68464111 319.99124268 -16.59608887 320.45538574 -17.53515625 320.93359375 C-19.08553589 321.71754517 -19.08553589 321.71754517 -20.66723633 322.51733398 C-21.76962646 323.07880127 -22.8720166 323.64026855 -24.0078125 324.21875 C-26.38464473 325.41823755 -28.76199075 326.61660048 -31.140625 327.8125 C-31.73694229 328.11252426 -32.33325958 328.41254852 -32.94764709 328.72166443 C-38.92878595 331.72443859 -44.96465997 334.60427907 -51.01586914 337.46240234 C-58.11435342 340.83111365 -65.16007979 344.29832151 -72.19921875 347.7890625 C-75.25618543 349.30028891 -78.31352011 350.81076854 -81.37094116 352.32107544 C-83.40704237 353.3295156 -85.44143448 354.34141453 -87.47402954 355.35690308 C-90.36378343 356.80022245 -93.25937068 358.23120403 -96.15625 359.66015625 C-97.02113541 360.09615143 -97.88602081 360.53214661 -98.77711487 360.98135376 C-105.89059684 364.46733118 -113.23359999 367.62938088 -121.1484375 365.17578125 C-125.46199681 363.16804734 -129.11693795 360.33201084 -131.14086914 355.97842407 C-135.01851458 344.72579138 -130.67470842 329.91017616 -129.0078125 318.4453125 C-128.69308355 316.23493264 -128.37921441 314.0244302 -128.06616211 311.81381226 C-127.24463003 306.0251206 -126.41390307 300.23779079 -125.58044434 294.45080566 C-124.24461043 285.1690136 -122.92010627 275.88561461 -121.6008606 266.60145187 C-121.13947098 263.36699018 -120.67244629 260.13337793 -120.20483398 256.89981079 C-119.92152171 254.91712113 -119.63839021 252.93440562 -119.35546875 250.95166016 C-119.22455841 250.0570105 -119.09364807 249.16236084 -118.95877075 248.24060059 C-117.48866077 240.67504006 -117.48866077 240.67504006 -119.06982422 233.50878906 C-119.54178223 233.02635742 -120.01374023 232.54392578 -120.5 232.046875 C-121.03939209 231.48170166 -121.57878418 230.91652832 -122.13452148 230.33422852 C-122.73208252 229.73924561 -123.32964355 229.1442627 -123.9453125 228.53125 C-124.56156494 227.89437256 -125.17781738 227.25749512 -125.81274414 226.60131836 C-127.8806409 224.47608667 -129.97216009 222.37660301 -132.0703125 220.28125 C-132.8348877 219.51506348 -133.59946289 218.74887695 -134.38720703 217.95947266 C-139.0618551 213.2783256 -139.0618551 213.2783256 -143.76318359 208.62402344 C-147.11765766 205.31090693 -150.38108381 201.98379258 -153.44921875 198.40234375 C-157.87798738 193.2541298 -162.73708105 188.54611891 -167.5703125 183.78125 C-173.08071685 178.34878631 -178.48755981 172.92254618 -183.51953125 167.04150391 C-186.64909138 163.48921666 -190.17008985 160.32992297 -193.6171875 157.08984375 C-197.65876386 152.46262496 -199.6909644 147.63116938 -199.421875 141.33203125 C-198.329767 134.96140127 -195.23377438 130.99907776 -190.0703125 127.28125 C-180.79417184 123.85270206 -170.15125975 123.21855722 -160.40504456 121.88952637 C-152.53331475 120.81292651 -144.68216896 119.60644874 -136.83052921 118.39305878 C-130.89088545 117.48077844 -124.95134255 116.61376816 -118.99145508 115.84375 C-92.42680157 113.9169173 -92.42680157 113.9169173 -70.20077419 101.70771408 C-66.04542533 95.89677932 -63.84752574 89.41031066 -62.04881287 82.54043579 C-60.47969831 77.31403421 -57.77032182 72.82930638 -55.0078125 68.15625 C-54.02168802 66.37551611 -53.04053054 64.59201414 -52.06640625 62.8046875 C-51.33333252 61.46229004 -51.33333252 61.46229004 -50.58544922 60.09277344 C-47.85225026 55.02098497 -45.21457743 49.89980262 -42.5703125 44.78125 C-38.29277723 36.50959188 -33.95625539 28.27492096 -29.5078125 20.09375 C-29.01925781 19.19140625 -28.53070313 18.2890625 -28.02734375 17.359375 C-21.88489349 6.1210931 -14.70653291 -5.10566426 0 0 Z M-9.0703125 14.28125 C-15.37566285 25.71066471 -21.57994934 37.18323378 -27.5703125 48.78125 C-32.06051518 57.47456481 -36.66525831 66.09102048 -41.39477539 74.65625 C-44.34281891 80.02567555 -47.19588548 85.43522809 -49.98046875 90.890625 C-50.31485962 91.54432068 -50.64925049 92.19801636 -50.99377441 92.871521 C-52.6421366 96.09640896 -54.28159584 99.32536363 -55.90771484 102.56152344 C-63.60613817 117.6766952 -63.60613817 117.6766952 -71.74168015 120.57403374 C-75.90434803 121.83825495 -80.14358861 122.53409959 -84.43017578 123.24243164 C-85.93902847 123.50161629 -85.93902847 123.50161629 -87.47836304 123.76603699 C-90.78126637 124.33169925 -94.08591318 124.88641692 -97.390625 125.44140625 C-99.69666374 125.83506832 -102.00255988 126.22956663 -104.30831909 126.62486267 C-110.36454679 127.66146692 -116.42220227 128.68944612 -122.48034668 129.71478271 C-132.18357749 131.35760126 -141.88524587 133.00948616 -151.58562851 134.66903496 C-154.96947276 135.24603653 -158.35431643 135.81687866 -161.73928833 136.38722229 C-163.81597855 136.74106642 -165.89263061 137.0951346 -167.96923828 137.44946289 C-168.90757507 137.6058725 -169.84591187 137.7622821 -170.81268311 137.9234314 C-175.39498442 138.71119888 -179.69583701 139.64588703 -184.0703125 141.28125 C-183.58748187 145.81316026 -182.08671376 147.73270399 -178.84375 150.86328125 C-177.97621094 151.71341797 -177.10867187 152.56355469 -176.21484375 153.43945312 C-175.30089844 154.31537109 -174.38695312 155.19128906 -173.4453125 156.09375 C-163.17251763 166.06178034 -163.17251763 166.06178034 -159.734375 170.10546875 C-154.54844521 176.17506875 -148.74432008 181.67380899 -143.0703125 187.28125 C-130.06322898 200.13573645 -130.06322898 200.13573645 -124.72070312 206.41699219 C-120.75956967 210.89143228 -116.34231177 214.96374814 -112.03515625 219.1015625 C-103.29558243 227.67038088 -103.29558243 227.67038088 -102.92465782 233.61596012 C-102.91502153 240.23368257 -103.47759126 246.5689843 -104.47900391 253.10522461 C-104.62852005 254.12453064 -104.77803619 255.14383667 -104.93208313 256.19403076 C-105.2544425 258.38572146 -105.58030705 260.57689901 -105.90938187 262.76759148 C-106.42942728 266.23393314 -106.93872397 269.70170463 -107.44515991 273.1700592 C-108.88583323 283.02325058 -110.34582437 292.87354902 -111.8125 302.72290039 C-112.71134402 308.76406559 -113.59800378 314.80691977 -114.47733688 320.85095406 C-114.8146244 323.15101525 -115.15677021 325.45036938 -115.50383377 327.74897575 C-115.98739495 330.95210796 -116.45558467 334.15714067 -116.92041016 337.36303711 C-117.06786179 338.31320206 -117.21531342 339.263367 -117.36723328 340.24232483 C-117.49069626 341.1154129 -117.61415924 341.98850098 -117.74136353 342.88804626 C-117.85382227 343.64437819 -117.96628101 344.40071012 -118.0821476 345.1799612 C-118.06799027 347.69355522 -117.33712239 349.13949779 -116.0703125 351.28125 C-111.07309189 350.66169852 -107.06015963 348.45821287 -102.640625 346.1953125 C-101.41326126 345.57639633 -101.41326126 345.57639633 -100.16110229 344.94497681 C-98.4111263 344.0619356 -96.66247558 343.17626396 -94.91503906 342.28820801 C-90.35059919 339.96890712 -85.77647419 337.66885651 -81.203125 335.3671875 C-80.30813293 334.91617676 -79.41314087 334.46516602 -78.49102783 334.00048828 C-71.20971795 330.3365701 -63.87896056 326.79556962 -56.50439453 323.32299805 C-50.90272313 320.67135941 -45.35241044 317.92977206 -39.8203125 315.13671875 C-39.09835693 314.77279022 -38.37640137 314.40886169 -37.63256836 314.03390503 C-34.04768757 312.22576508 -30.46653293 310.41078094 -26.890625 308.58496094 C-25.57563048 307.9197051 -24.26053106 307.25465655 -22.9453125 306.58984375 C-21.78773438 306.00001709 -20.63015625 305.41019043 -19.4375 304.80249023 C-13.17712971 301.97415734 -7.81435022 300.4766574 -1.0703125 302.28125 C2.45630189 303.63282423 5.80531362 305.27684366 9.1796875 306.96875 C10.16839844 307.45279297 11.15710938 307.93683594 12.17578125 308.43554688 C15.43437076 310.03650607 18.6829243 311.65645019 21.9296875 313.28125 C23.06212891 313.84666504 24.19457031 314.41208008 25.36132812 314.99462891 C30.08257403 317.35327036 34.80259444 319.7143077 39.51806641 322.08447266 C47.73317481 326.20723794 55.99300139 330.22009898 64.3059082 334.14160156 C69.5800331 336.64067683 74.80464565 339.22033871 79.99609375 341.88671875 C81.193818 342.49867458 82.39157173 343.11057272 83.58935547 343.72241211 C85.89965575 344.90698061 88.20491056 346.10145397 90.50439453 347.30688477 C91.5457959 347.83983154 92.58719727 348.37277832 93.66015625 348.921875 C95.04303833 349.64165527 95.04303833 349.64165527 96.45385742 350.37597656 C98.84726091 351.44323887 98.84726091 351.44323887 101.1965332 351.11621094 C101.76847412 350.84067383 102.34041504 350.56513672 102.9296875 350.28125 C103.94871623 347.2241638 103.93486671 346.09322457 103.48048401 343.00830078 C103.29322754 341.70073067 103.29322754 341.70073067 103.10218811 340.366745 C102.88640358 338.93610466 102.88640358 338.93610466 102.66625977 337.4765625 C102.52010223 336.46966873 102.3739447 335.46277496 102.22335815 334.42536926 C101.90448265 332.23469694 101.58238416 330.04449193 101.25747871 327.85470581 C100.74259805 324.38267719 100.2365614 320.90946294 99.7328949 317.43579102 C98.47908609 308.80095612 97.21082066 300.16825811 95.94140625 291.53570557 C94.8709881 284.25388212 93.80687585 276.97119331 92.75135612 269.68719482 C92.25458001 266.27700513 91.74860382 262.86826245 91.24232483 259.45947266 C90.93524974 257.34674796 90.62862172 255.23395821 90.32250977 253.12109375 C90.10976158 251.71474419 90.10976158 251.71474419 89.89271545 250.27998352 C87.29334118 232.0707269 87.29334118 232.0707269 92.16894531 225.33203125 C95.97153462 220.90305868 100.1132468 216.83879745 104.3046875 212.78125 C111.5173454 205.82257438 111.5173454 205.82257438 118.28125 198.4375 C123.99100584 191.75669725 130.43172594 185.72644218 136.67773438 179.55371094 C142.41441793 173.87833053 148.09775953 168.24422345 153.32861328 162.09179688 C156.9379983 158.01018673 160.98044518 154.31307451 164.93945312 150.57421875 C165.58462891 149.94644531 166.22980469 149.31867188 166.89453125 148.671875 C167.478396 148.11532227 168.06226074 147.55876953 168.66381836 146.98535156 C170.32722978 145.09988639 170.32722978 145.09988639 169.9296875 141.28125 C159.67735662 138.38990701 149.24705728 136.6765566 138.75624847 134.90742493 C135.54297569 134.36511215 132.33085218 133.81640388 129.11895752 133.26599121 C119.99554764 131.7036337 110.8702992 130.15217223 101.74414062 128.60595703 C96.1400353 127.65601909 90.53728688 126.69839091 84.93527985 125.73616028 C82.81001884 125.37276077 80.68424302 125.01235834 78.55794525 124.65507507 C75.58520643 124.15548485 72.61428084 123.64616824 69.64355469 123.13476562 C68.77479706 122.99130203 67.90603943 122.84783844 67.01095581 122.70002747 C54.58022389 120.53016869 54.58022389 120.53016869 50.08642578 116.71728516 C46.12746489 110.92644715 42.9025459 104.8101635 39.75445557 98.54553223 C38.11542696 95.28517033 36.45105724 92.03776036 34.7890625 88.7890625 C34.45758209 88.13973755 34.12610168 87.4904126 33.78457642 86.82141113 C30.97611424 81.33438501 28.04203807 75.92292672 25.0546875 70.53125 C19.11995183 59.79562175 13.53609923 48.88467969 7.97900391 37.95019531 C5.99042028 34.04571719 3.97306803 30.157319 1.9296875 26.28125 C1.60905334 25.66930786 1.28841919 25.05736572 0.95806885 24.42687988 C0.04612578 22.70457314 -0.89232986 20.99638261 -1.83203125 19.2890625 C-2.36143311 18.31855957 -2.89083496 17.34805664 -3.4362793 16.34814453 C-3.97551025 15.66606934 -4.51474121 14.98399414 -5.0703125 14.28125 C-6.3903125 14.28125 -7.7103125 14.28125 -9.0703125 14.28125 Z " fill="#F7A527" transform="translate(263.0703125,46.71875)"/>
<path d="M0 0 C3.29560372 2.35219022 4.08606643 5.52663148 5.3203125 9.26953125 C5.53652756 9.91801025 5.75274261 10.56648926 5.97550964 11.23461914 C6.70192642 13.42411194 7.41407668 15.61793103 8.125 17.8125 C8.63542712 19.37141443 9.14609479 20.9302501 9.65698242 22.48901367 C11.11663472 26.95732184 12.5594463 31.43095424 14.00054932 35.90527344 C15.07480179 39.23161832 16.15675723 42.55539591 17.23974609 45.87890625 C19.22253871 51.96889375 21.18727197 58.06447734 23.14080811 64.16390991 C23.92051237 66.59187008 24.70488134 69.01833729 25.49395752 71.44326782 C26.61054787 74.88095822 27.70790021 78.32424152 28.80078125 81.76953125 C29.13973923 82.80045898 29.4786972 83.83138672 29.82792664 84.89355469 C31.54681239 90.38738826 32.53219433 94.38476806 31 100 C29.4375 102 29.4375 102 27 103 C19.16666477 102.6148409 11.93081577 99.95258337 4.51953125 97.5546875 C3.10172141 97.10148386 1.68372325 96.64886899 0.26554871 96.19680786 C-3.46512731 95.00569403 -7.19297699 93.80595914 -10.92034912 92.60455322 C-14.63971798 91.40768646 -18.36203908 90.22007476 -22.08398438 89.03125 C-28.47458944 86.98840379 -34.86061624 84.93177078 -41.24284172 82.86289597 C-45.38850784 81.5193072 -49.53819395 80.18891659 -53.68994141 78.86425781 C-55.60208991 78.24606683 -57.51405332 77.62730287 -59.42578125 77.0078125 C-60.27238815 76.74088593 -61.11899506 76.47395935 -61.99125671 76.19894409 C-68.6091651 74.03077577 -68.6091651 74.03077577 -71 71 C-71.63191131 64.78731406 -70.38829691 60.10027935 -68.0625 54.375 C-67.74966064 53.59374756 -67.43682129 52.81249512 -67.11450195 52.00756836 C-56.9249079 27.54505946 -37.92164989 12.13634846 -13.89233398 2.12158203 C-8.93394708 0.17736486 -5.35218631 -0.54429013 0 0 Z M-33 30 C-33.82113281 30.72832031 -34.64226563 31.45664062 -35.48828125 32.20703125 C-43.41582924 39.65339272 -49.11885117 48.10169798 -53.11181641 58.21679688 C-53.46692291 59.11362183 -53.82202942 60.01044678 -54.18789673 60.93444824 C-54.58988785 61.95689636 -54.58988785 61.95689636 -55 63 C-46.43029057 65.74145071 -37.85960005 68.47980566 -29.28763008 71.21417999 C-25.30763603 72.48386696 -21.32799219 73.75462996 -17.34912109 75.02783203 C-13.511471 76.25580145 -9.67293742 77.48097048 -5.83376694 78.70417786 C-4.36698257 79.17206053 -2.90052299 79.64096262 -1.43439102 80.11088562 C0.61434851 80.76735611 2.66419818 81.42023867 4.71435547 82.07226562 C5.88239716 82.44532837 7.05043884 82.81839111 8.25387573 83.20275879 C10.84353121 84.09293451 10.84353121 84.09293451 13 84 C10.82792796 75.7395175 8.35648865 67.59611299 5.76953125 59.45703125 C5.1766053 57.58261604 5.1766053 57.58261604 4.57170105 55.67033386 C3.5330174 52.38683035 2.49174732 49.10415298 1.44989014 45.82165527 C0.3823122 42.45647952 -0.68275367 39.09050894 -1.74804688 35.72460938 C-3.82960783 29.1489705 -5.91390909 22.57420313 -8 16 C-16.30804521 16 -27.16566889 24.76079191 -33 30 Z " fill="#FDD81D" transform="translate(87,16)"/>
<path d="M0 0 C1.41780984 0.45320364 2.835808 0.90581851 4.25398254 1.35787964 C7.98465856 2.54899347 11.71250824 3.74872836 15.43988037 4.95013428 C19.15924923 6.14700104 22.88157033 7.33461274 26.60351562 8.5234375 C32.99412069 10.56628371 39.38014749 12.62291672 45.76237297 14.69179153 C49.90803909 16.0353803 54.0577252 17.36577091 58.20947266 18.69042969 C60.12162116 19.30862067 62.03358457 19.92738463 63.9453125 20.546875 C64.7919194 20.81380157 65.63852631 21.08072815 66.51078796 21.35574341 C73.12869635 23.52391173 73.12869635 23.52391173 75.51953125 26.5546875 C76.15146267 32.76757117 74.90755407 37.45416766 72.58203125 43.1796875 C72.26991699 43.96021484 71.95780273 44.74074219 71.63623047 45.54492188 C62.00880779 68.68095481 44.90272367 83.32632711 22.51953125 93.5546875 C21.54242188 94.01230469 20.5653125 94.46992188 19.55859375 94.94140625 C14.32711722 97.2352075 10.23506726 98.25659543 4.51953125 97.5546875 C1.230078 95.187116 0.43569515 92.0348196 -0.80078125 88.28515625 C-1.01699631 87.63667725 -1.23321136 86.98819824 -1.45597839 86.32006836 C-2.18239517 84.13057556 -2.89454543 81.93675647 -3.60546875 79.7421875 C-4.11589587 78.18327307 -4.62656354 76.6244374 -5.13745117 75.06567383 C-6.59710347 70.59736566 -8.03991505 66.12373326 -9.48101807 61.64941406 C-10.55527054 58.32306918 -11.63722598 54.99929159 -12.72021484 51.67578125 C-14.70300746 45.58579375 -16.66774072 39.49021016 -18.62127686 33.39077759 C-19.40098112 30.96281742 -20.18535009 28.53635021 -20.97442627 26.11141968 C-22.09101662 22.67372928 -23.18836896 19.23044598 -24.28125 15.78515625 C-24.62020798 14.75422852 -24.95916595 13.72330078 -25.30839539 12.66113281 C-27.02728114 7.16729924 -28.01266308 3.16991944 -26.48046875 -2.4453125 C-20.96687281 -9.5027153 -6.82970539 -2.20972792 0 0 Z M-8.48046875 13.5546875 C-6.30839671 21.81517 -3.8369574 29.95857451 -1.25 38.09765625 C-0.85471603 39.34726639 -0.45943207 40.59687653 -0.0521698 41.88435364 C0.98651385 45.16785715 2.02778393 48.45053452 3.06964111 51.73303223 C4.13721905 55.09820798 5.20228492 58.46417856 6.26757812 61.83007812 C8.34913908 68.405717 10.43344034 74.98048437 12.51953125 81.5546875 C14.28562894 80.92675211 16.05043927 80.29519517 17.81469727 79.66210938 C18.79761246 79.31079956 19.78052765 78.95948975 20.79322815 78.59753418 C36.01309976 72.77573375 48.31950777 58.79109756 55.51953125 44.5546875 C56.23630052 42.82306843 56.9379832 41.08515154 57.62695312 39.34228516 C58.16056458 37.99609604 58.16056458 37.99609604 58.70495605 36.62271118 C58.97376587 35.94026337 59.24257568 35.25781555 59.51953125 34.5546875 C52.42680641 32.25488063 45.33267311 29.95946405 38.23679733 27.66939831 C34.94071266 26.6055001 31.64510087 25.54018575 28.35058594 24.47143555 C24.54894828 23.23824617 20.74523272 22.01157767 16.94140625 20.78515625 C15.77841003 20.40691208 14.61541382 20.02866791 13.41717529 19.63896179 C6.17953713 17.31215983 -1.08065302 15.29892079 -8.48046875 13.5546875 Z " fill="#ED633B" transform="translate(420.48046875,398.4453125)"/>
<path d="M0 0 C3.84101217 0.49432894 7.26345315 1.77051053 10.83691406 3.22216797 C11.6181665 3.53500732 12.39941895 3.84784668 13.2043457 4.17016602 C37.66685461 14.35976007 53.0755656 33.36301808 63.09033203 57.39233398 C65.03454921 62.35072089 65.7562042 65.93248166 65.21191406 71.28466797 C62.85972385 74.58027169 59.68528259 75.3707344 55.94238281 76.60498047 C55.29390381 76.82119553 54.6454248 77.03741058 53.97729492 77.26017761 C51.78780213 77.98659439 49.59398303 78.69874465 47.39941406 79.40966797 C45.84049964 79.92009509 44.28166396 80.43076276 42.72290039 80.94165039 C38.25459222 82.40130269 33.78095982 83.84411427 29.30664062 85.28521729 C25.98029574 86.35946976 22.65651815 87.4414252 19.33300781 88.52441406 C13.24302031 90.50720668 7.14743673 92.47193994 1.04800415 94.42547607 C-1.37995602 95.20518034 -3.80642323 95.98954931 -6.23135376 96.77862549 C-9.66904415 97.89521584 -13.11232746 98.99256818 -16.55761719 100.08544922 C-17.58854492 100.4244072 -18.61947266 100.76336517 -19.68164062 101.1125946 C-25.1754742 102.83148036 -29.172854 103.8168623 -34.78808594 102.28466797 C-36.78808594 100.72216797 -36.78808594 100.72216797 -37.78808594 98.28466797 C-37.40292683 90.45133274 -34.74066931 83.21548374 -32.34277344 75.80419922 C-31.8895698 74.38638938 -31.43695492 72.96839122 -30.9848938 71.55021667 C-29.79377997 67.81954066 -28.59404508 64.09169098 -27.39263916 60.36431885 C-26.1957724 56.64494999 -25.0081607 52.92262889 -23.81933594 49.20068359 C-21.77648973 42.81007853 -19.71985672 36.42405173 -17.6509819 30.04182625 C-16.30739314 25.89616013 -14.97700252 21.74647402 -13.65234375 17.59472656 C-13.03415277 15.68257806 -12.41538881 13.77061465 -11.79589844 11.85888672 C-11.39550858 10.58897636 -11.39550858 10.58897636 -10.98703003 9.29341125 C-8.7978468 2.61135901 -7.44772669 -0.30083241 0 0 Z M2.21191406 16.28466797 C-0.52953665 24.8543774 -3.26789159 33.42506792 -6.00226593 41.99703789 C-7.27195289 45.97703194 -8.5427159 49.95667578 -9.81591797 53.93554688 C-11.04388739 57.77319697 -12.26905642 61.61173055 -13.49226379 65.45090103 C-13.96014647 66.9176854 -14.42904856 68.38414498 -14.89897156 69.85027695 C-15.55544204 71.89901648 -16.2083246 73.94886615 -16.86035156 75.99902344 C-17.23341431 77.16706512 -17.60647705 78.33510681 -17.99084473 79.5385437 C-18.88102045 82.12819918 -18.88102045 82.12819918 -18.78808594 84.28466797 C-10.52760344 82.11259593 -2.38419893 79.64115662 5.75488281 77.05419922 C7.00449295 76.65891525 8.25410309 76.26363129 9.5415802 75.85636902 C12.82508371 74.81768537 16.10776109 73.77641529 19.39025879 72.73455811 C22.75543454 71.66698017 26.12140512 70.60191429 29.48730469 69.53662109 C36.06294356 67.45506014 42.63771094 65.37075888 49.21191406 63.28466797 C48.75408213 61.85675527 48.29147562 60.43037295 47.8269043 59.00463867 C47.56981186 58.21015823 47.31271942 57.4156778 47.0478363 56.59712219 C41.30128357 40.70014102 26.9307354 27.72866956 12.21191406 20.28466797 C10.48029499 19.5678987 8.7423781 18.86621602 6.99951172 18.17724609 C6.10205231 17.82150513 5.2045929 17.46576416 4.27993774 17.09924316 C3.59748993 16.83043335 2.91504211 16.56162354 2.21191406 16.28466797 Z " fill="#ED633B" transform="translate(430.7880859375,15.71533203125)"/>
<path d="M0 0 C2 1.5625 2 1.5625 3 4 C2.6148409 11.83333523 -0.04741663 19.06918423 -2.4453125 26.48046875 C-2.89851614 27.89827859 -3.35113101 29.31627675 -3.80319214 30.73445129 C-4.99430597 34.46512731 -6.19404086 38.19297699 -7.39544678 41.92034912 C-8.59231354 45.63971798 -9.77992524 49.36203908 -10.96875 53.08398438 C-13.01159621 59.47458944 -15.06822922 65.86061624 -17.13710403 72.24284172 C-18.4806928 76.38850784 -19.81108341 80.53819395 -21.13574219 84.68994141 C-21.75393317 86.60208991 -22.37269713 88.51405332 -22.9921875 90.42578125 C-23.25911407 91.27238815 -23.52604065 92.11899506 -23.80105591 92.99125671 C-25.97350902 99.62224356 -25.97350902 99.62224356 -29 102 C-44.27781889 103.43979445 -60.72465152 92.31828602 -72 83 C-72.99 82.2575 -73.98 81.515 -75 80.75 C-85.48767642 71.83111729 -92.49789933 59.40450603 -97.4375 46.75 C-97.69684326 46.10071533 -97.95618652 45.45143066 -98.22338867 44.7824707 C-99.98039988 40.02482984 -100.47622168 36.07256355 -100 31 C-97.65175311 27.70291523 -94.47147516 26.91330922 -90.73046875 25.6796875 C-90.08198975 25.46347244 -89.43351074 25.24725739 -88.76538086 25.02449036 C-86.57588806 24.29807358 -84.38206897 23.58592332 -82.1875 22.875 C-80.62858557 22.36457288 -79.0697499 21.85390521 -77.51098633 21.34301758 C-73.04267816 19.88336528 -68.56904576 18.4405537 -64.09472656 16.99945068 C-60.76838168 15.92519821 -57.44460409 14.84324277 -54.12109375 13.76025391 C-48.03110625 11.77746129 -41.93552266 9.81272803 -35.83609009 7.85919189 C-33.40812992 7.07948763 -30.98166271 6.29511866 -28.55673218 5.50604248 C-25.11904178 4.38945213 -21.67575848 3.29209979 -18.23046875 2.19921875 C-17.19954102 1.86026077 -16.16861328 1.5213028 -15.10644531 1.17207336 C-9.61261174 -0.54681239 -5.61523194 -1.53219433 0 0 Z M-24.28564453 19.92773438 C-24.92967224 20.13255936 -25.57369995 20.33738434 -26.23724365 20.54841614 C-28.36998272 21.22745897 -30.50138947 21.91058865 -32.6328125 22.59375 C-34.10961013 23.06482676 -35.58648904 23.53564875 -37.06344604 24.00622559 C-40.95392188 25.24653606 -44.84328105 26.49031304 -48.73242188 27.73480225 C-52.69985536 29.00367249 -56.66832951 30.26927901 -60.63671875 31.53515625 C-68.42550448 34.02023486 -76.21311416 36.50897462 -84 39 C-83.37206461 40.76609769 -82.74050767 42.53090802 -82.10742188 44.29516602 C-81.75611206 45.27808121 -81.40480225 46.2609964 -81.04284668 47.2736969 C-75.22104625 62.49356851 -61.23641006 74.79997652 -47 82 C-45.26838093 82.71676927 -43.53046404 83.41845195 -41.78759766 84.10742188 C-40.89013824 84.46316284 -39.99267883 84.81890381 -39.06802368 85.1854248 C-38.38557587 85.45423462 -37.70312805 85.72304443 -37 86 C-34.25854929 77.43029057 -31.52019434 68.85960005 -28.78582001 60.28763008 C-27.51613304 56.30763603 -26.24537004 52.32799219 -24.97216797 48.34912109 C-23.74419855 44.511471 -22.51902952 40.67293742 -21.29582214 36.83376694 C-20.82793947 35.36698257 -20.35903738 33.90052299 -19.88911438 32.43439102 C-19.23264389 30.38565149 -18.57976133 28.33580182 -17.92773438 26.28564453 C-17.55467163 25.11760284 -17.18160889 23.94956116 -16.79724121 22.74612427 C-15.90706549 20.15646879 -15.90706549 20.15646879 -16 18 C-18.96669997 18 -21.46113874 19.02561085 -24.28564453 19.92773438 Z " fill="#FDD81D" transform="translate(116,394)"/>
<path d="M0 0 C4.39845591 1.28923813 8.32868329 3.61120732 12.33398438 5.79833984 C14.36472223 6.88523476 16.39599646 7.97112799 18.42773438 9.05615234 C20.03455078 9.91901855 20.03455078 9.91901855 21.67382812 10.79931641 C25.26250707 12.70567363 28.87137346 14.56738856 32.49023438 16.41552734 C33.72559561 17.04807681 34.96094724 17.68064503 36.19628906 18.31323242 C38.59060733 19.53880401 40.98742933 20.75902158 43.38574219 21.97680664 C44.47725586 22.53795166 45.56876953 23.09909668 46.69335938 23.67724609 C47.66241211 24.17168213 48.63146484 24.66611816 49.62988281 25.17553711 C51.90173157 26.5042477 53.49150818 27.52714399 55.08398438 29.61083984 C55.79178414 35.18476301 55.79178414 35.18476301 55.08398438 37.61083984 C50.66910315 41.77161497 45.32940154 44.22574444 39.96289062 46.92724609 C38.98537338 47.42498032 38.00785614 47.92271454 37.00071716 48.43553162 C33.88535348 50.02021136 30.76600002 51.59685185 27.64648438 53.17333984 C25.55181734 54.23726943 23.45741336 55.30171712 21.36328125 56.36669922 C16.68578839 58.74365882 12.00829025 61.12054977 7.32058716 63.47732544 C5.41597056 64.44258864 3.52556942 65.4358181 1.63842773 66.43481445 C-1.73375167 67.98731261 -3.42820636 67.82399089 -6.91601562 66.61083984 C-10.40012051 62.9373079 -11.98882804 59.31090416 -13.60351562 54.54833984 C-14.01988281 53.34048828 -14.43625 52.13263672 -14.86523438 50.88818359 C-19.36598455 36.85052785 -18.06261487 20.25135485 -11.64257812 6.97802734 C-8.70871277 2.01712774 -6.26574657 -1.13431619 0 0 Z M0.08398438 17.61083984 C-3.66123228 29.53757145 -3.32902191 37.60437129 0.08398438 49.61083984 C4.35324384 48.29165537 8.18577234 46.65010597 12.13867188 44.57177734 C13.8015625 43.70166016 13.8015625 43.70166016 15.49804688 42.81396484 C16.64015625 42.21068359 17.78226563 41.60740234 18.95898438 40.98583984 C20.12429687 40.37482422 21.28960937 39.76380859 22.49023438 39.13427734 C25.35693419 37.63043482 28.22140659 36.12250967 31.08398438 34.61083984 C31.08398438 33.95083984 31.08398438 33.29083984 31.08398438 32.61083984 C26.9932515 30.46941294 22.89979961 28.33331303 18.80371094 26.20214844 C17.41004211 25.47607622 16.01713382 24.74854228 14.625 24.01953125 C12.62632192 22.97321473 10.62498691 21.93214858 8.62304688 20.89208984 C7.99902985 20.56398315 7.37501282 20.23587646 6.73208618 19.89782715 C3.57431826 18.16352405 3.57431826 18.16352405 0.08398438 17.61083984 Z " fill="#FDE228" transform="translate(32.916015625,222.38916015625)"/>
<path d="M0 0 C3.48410488 3.67353194 5.07281242 7.29993569 6.6875 12.0625 C7.10386719 13.27035156 7.52023437 14.47820312 7.94921875 15.72265625 C12.44996892 29.760312 11.14659924 46.359485 4.7265625 59.6328125 C2.72473316 63.01772392 1.32379243 64.78413838 -2 67 C-8.59444386 66.8900926 -13.56197765 63.91849838 -19.25 60.8125 C-21.28073786 59.72560508 -23.31201208 58.63971186 -25.34375 57.5546875 C-26.41496094 56.97944336 -27.48617187 56.40419922 -28.58984375 55.81152344 C-32.17852269 53.90516621 -35.78738909 52.04345129 -39.40625 50.1953125 C-40.64161124 49.56276303 -41.87696287 48.93019481 -43.11230469 48.29760742 C-45.50662296 47.07203584 -47.90344496 45.85181826 -50.30175781 44.6340332 C-51.39327148 44.07288818 -52.48478516 43.51174316 -53.609375 42.93359375 C-54.57842773 42.43915771 -55.54748047 41.94472168 -56.54589844 41.43530273 C-58.8177472 40.10659214 -60.40752381 39.08369585 -62 37 C-62.70779977 31.42607683 -62.70779977 31.42607683 -62 29 C-57.58511877 24.83922487 -52.24541716 22.38509541 -46.87890625 19.68359375 C-45.41263039 18.93699242 -45.41263039 18.93699242 -43.91673279 18.17530823 C-40.8013691 16.59062848 -37.68201565 15.013988 -34.5625 13.4375 C-32.46783296 12.37357041 -30.37342899 11.30912273 -28.27929688 10.24414062 C-23.60180401 7.86718102 -18.92430588 5.49029008 -14.23660278 3.1335144 C-12.33198618 2.16825121 -10.44158504 1.17502174 -8.55444336 0.17602539 C-5.18226396 -1.37647276 -3.48780927 -1.21315105 0 0 Z M-15.5390625 20.28125 C-16.17991791 20.61419067 -16.82077332 20.94713135 -17.48104858 21.29016113 C-19.53104105 22.35630087 -21.57802836 23.42807366 -23.625 24.5 C-25.01282687 25.22302868 -26.40084537 25.94568966 -27.7890625 26.66796875 C-31.19494812 28.4410506 -34.59814889 30.21919062 -38 32 C-38 32.66 -38 33.32 -38 34 C-33.90926712 36.1414269 -29.81581524 38.27752682 -25.71972656 40.40869141 C-24.32605774 41.13476363 -22.93314944 41.86229756 -21.54101562 42.59130859 C-19.54233755 43.63762511 -17.54100253 44.67869127 -15.5390625 45.71875 C-14.91504547 46.04685669 -14.29102844 46.37496338 -13.64810181 46.7130127 C-10.49033389 48.44731579 -10.49033389 48.44731579 -7 49 C-3.25478335 37.07326839 -3.58699371 29.00646855 -7 17 C-10.20394158 17 -12.75775646 18.81884581 -15.5390625 20.28125 Z " fill="#EB543A" transform="translate(486,223)"/>
<path d="M0 0 C5.59120463 5.50261159 8.91615736 12.73198801 12.625 19.5625 C13.62907187 21.3974196 14.63497069 23.23132556 15.64144897 25.06492615 C16.55126547 26.72465226 17.45667129 28.38679397 18.36181641 30.04907227 C19.41977646 31.95481938 20.53652149 33.82960569 21.72021484 35.65991211 C23.58785911 39.07490072 22.95570564 41.31370682 22 45 C20.875 46.9375 20.875 46.9375 19 48 C15.625 48.5625 15.625 48.5625 12 48 C6.88354102 42.92660886 3.84451651 36.56655787 0.5 30.25 C-0.05558594 29.21617187 -0.61117188 28.18234375 -1.18359375 27.1171875 C-2.80574895 24.08661989 -4.40525392 21.04506233 -6 18 C-6.50724609 17.05253906 -7.01449219 16.10507812 -7.53710938 15.12890625 C-7.99923828 14.24589844 -8.46136719 13.36289062 -8.9375 12.453125 C-9.34871094 11.67614258 -9.75992187 10.89916016 -10.18359375 10.09863281 C-11 8 -11 8 -10.5 4.5 C-7.82194109 0.03656849 -4.96844219 -0.79495075 0 0 Z " fill="#F28C3D" transform="translate(340,424)"/>
<path d="M0 0 C3.82441827 1.44707719 3.82441827 1.44707719 5.3125 3.875 C6.28739856 8.83073436 6.28739856 8.83073436 5.3125 11.875 C3.78466797 13.29980469 3.78466797 13.29980469 1.6796875 14.609375 C0.45475586 15.37471558 0.45475586 15.37471558 -0.79492188 16.15551758 C-1.74947266 16.72294678 -2.70402344 17.29037598 -3.6875 17.875 C-4.79158203 18.53330811 -5.89566406 19.19161621 -7.03320312 19.86987305 C-10.12464494 21.69181151 -13.24183149 23.46419183 -16.37207031 25.21850586 C-17.67379315 25.9524037 -18.97098538 26.69439186 -20.26367188 27.4440918 C-22.15817362 28.54230184 -24.06512656 29.61519431 -25.9765625 30.68359375 C-27.09756348 31.32095459 -28.21856445 31.95831543 -29.37353516 32.61499023 C-33.3332241 34.12051216 -35.62011119 33.93599061 -39.6875 32.875 C-42.13912984 30.19352986 -42.63107665 28.53797433 -42.9375 24.9375 C-39.75117101 17.13099397 -27.58767113 12.9702212 -20.5 9.1875 C-18.91928711 8.33575195 -18.91928711 8.33575195 -17.30664062 7.46679688 C-14.43911559 5.92552476 -11.56504318 4.39746369 -8.6875 2.875 C-8.03467041 2.5234082 -7.38184082 2.17181641 -6.70922852 1.80957031 C-4.20477269 0.49301233 -2.8880513 -0.13432797 0 0 Z " fill="#ED673B" transform="translate(456.6875,126.125)"/>
<path d="M0 0 C3.33366843 1.77795649 4.42834025 2.99889005 5.8125 6.5 C5.8125 9.0625 5.8125 9.0625 4.8125 11.5 C0.259397 15.78141578 -5.34373553 18.452928 -10.8125 21.375 C-11.74707031 21.87902344 -12.68164062 22.38304687 -13.64453125 22.90234375 C-15.53214608 23.92035396 -17.4218832 24.9344388 -19.3137207 25.94458008 C-21.29007433 27.01427246 -23.25427001 28.10663867 -25.20776367 29.2175293 C-26.17689697 29.76578369 -27.14603027 30.31403809 -28.14453125 30.87890625 C-29.0156958 31.3797876 -29.88686035 31.88066895 -30.78442383 32.39672852 C-34.46898564 34.0883403 -36.41004364 33.866314 -40.1875 32.5 C-42.66788907 28.7794164 -42.65087203 26.90203429 -42.1875 22.5 C-39.24917722 18.88814509 -35.71715613 16.92503136 -31.6640625 14.71484375 C-30.72836929 14.20130089 -30.72836929 14.20130089 -29.77377319 13.67738342 C-27.79016144 12.59090735 -25.80141716 11.51422699 -23.8125 10.4375 C-22.4840406 9.71089751 -21.15591219 8.98368952 -19.828125 8.25585938 C-16.28951348 6.32148799 -12.74743453 4.39497483 -9.1875 2.5 C-8.12321777 1.91935791 -7.05893555 1.33871582 -5.96240234 0.74047852 C-3.1875 -0.5 -3.1875 -0.5 0 0 Z " fill="#FDD51B" transform="translate(92.1875,329.5)"/>
<path d="M0 0 C3.61185491 2.93832278 5.57496864 6.47034387 7.78515625 10.5234375 C8.29869911 11.45913071 8.29869911 11.45913071 8.82261658 12.41372681 C9.90909265 14.39733856 10.98577301 16.38608284 12.0625 18.375 C12.78910249 19.7034594 13.51631048 21.03158781 14.24414062 22.359375 C16.17851201 25.89798652 18.10502517 29.44006547 20 33 C20.85936157 34.61189209 20.85936157 34.61189209 21.73608398 36.25634766 C23 39 23 39 22.875 41.6875 C21.90365519 44.25462558 21.23020876 45.40699374 19 47 C16.625 47.875 16.625 47.875 14 48 C9.92898054 46.04291833 8.06678942 44.06276519 5.9140625 40.1328125 C5.37861816 39.17052734 4.84317383 38.20824219 4.29150391 37.21679688 C3.74155762 36.19650391 3.19161133 35.17621094 2.625 34.125 C2.05571777 33.08666016 1.48643555 32.04832031 0.89990234 30.97851562 C-0.22764713 28.9195402 -1.35065495 26.85807008 -2.46875 24.79394531 C-3.75405421 22.44875696 -5.07433311 20.13628162 -6.4375 17.8359375 C-7.076875 16.73507813 -7.71625 15.63421875 -8.375 14.5 C-9.19097656 13.12328125 -9.19097656 13.12328125 -10.0234375 11.71875 C-11.32437138 8.09695007 -10.95825709 5.69236676 -10 2 C-6.2794164 -0.48038907 -4.40203429 -0.46337203 0 0 Z " fill="#FCC20F" transform="translate(160,50)"/>
<path d="M0 0 C1.9375 1.625 1.9375 1.625 3 4 C2.65956592 9.38130474 1.09373169 13.28542464 -1.67578125 17.81640625 C-2.04221237 18.43595688 -2.40864349 19.05550751 -2.78617859 19.6938324 C-3.95087653 21.6566944 -5.1314768 23.60942727 -6.3125 25.5625 C-7.09412793 26.87634152 -7.87473627 28.19079017 -8.65429688 29.50585938 C-10.74568572 33.01940261 -12.84936987 36.52226794 -15 40 C-15.67313232 41.104646 -16.34626465 42.20929199 -17.03979492 43.34741211 C-19 46 -19 46 -22.4375 47.125 C-26 47 -26 47 -28.9375 45.5 C-31 43 -31 43 -31.38208008 39.81518555 C-30.91390096 35.14027499 -29.39654498 32.38105994 -26.94921875 28.45703125 C-26.53460892 27.76614914 -26.11999908 27.07526703 -25.69282532 26.3634491 C-24.37193711 24.17081466 -23.02998658 21.99196152 -21.6875 19.8125 C-20.79616244 18.33741165 -19.90617439 16.86150696 -19.01757812 15.38476562 C-8.34784517 -2.26087473 -8.34784517 -2.26087473 0 0 Z " fill="#FCC20F" transform="translate(180,425)"/>
<path d="M0 0 C2.80151367 1.26586914 2.80151367 1.26586914 5.66796875 3.03515625 C6.72693359 3.68033203 7.78589844 4.32550781 8.87695312 4.99023438 C9.96943359 5.67408203 11.06191406 6.35792969 12.1875 7.0625 C13.26064453 7.71927734 14.33378906 8.37605469 15.43945312 9.05273438 C18.63810495 11.01681883 21.8201024 13.0057267 25 15 C26.0617041 15.65597168 27.1234082 16.31194336 28.21728516 16.98779297 C29.21421387 17.60928223 30.21114258 18.23077148 31.23828125 18.87109375 C32.13200439 19.42595459 33.02572754 19.98081543 33.9465332 20.55249023 C36 22 36 22 37 24 C37.38503376 27.54231061 37.41935959 29.36257342 35.4375 32.375 C32.09464967 34.60356689 29.97088013 34.31407501 26 34 C23.0690918 32.71826172 23.0690918 32.71826172 20.19921875 30.9296875 C19.13896484 30.28 18.07871094 29.6303125 16.98632812 28.9609375 C15.3534082 27.92839844 15.3534082 27.92839844 13.6875 26.875 C12.61048828 26.20984375 11.53347656 25.5446875 10.42382812 24.859375 C8.29557218 23.54452275 6.17159758 22.22271197 4.05224609 20.89355469 C0.35585468 18.60038465 -3.39299016 16.40426424 -7.16088867 14.23095703 C-9 13 -9 13 -10 11 C-10.35872645 7.12575435 -10.56710729 4.85066094 -8.375 1.5625 C-5.29159047 -0.4660589 -3.65333038 -0.32746705 0 0 Z " fill="#EE6D3B" transform="translate(412,329)"/>
<path d="M0 0 C3.21630859 1.46533203 3.21630859 1.46533203 6.6484375 3.5078125 C7.26465973 3.87091522 7.88088196 4.23401794 8.51577759 4.60812378 C9.81527276 5.37714984 11.11107529 6.15244614 12.40332031 6.93359375 C14.35475889 8.11276911 16.31655392 9.27276556 18.28125 10.4296875 C33.65949593 19.54361869 33.65949593 19.54361869 37 23 C37.75 26.625 37.75 26.625 37 30 C35.375 32.4375 35.375 32.4375 33 34 C28.08306445 34.50854421 25.29403966 33.44075409 21.078125 30.96484375 C19.96953125 30.31966797 18.8609375 29.67449219 17.71875 29.00976562 C17.14769531 28.66856689 16.57664062 28.32736816 15.98828125 27.97583008 C14.27606737 26.95307086 12.55214672 25.94999287 10.828125 24.94726562 C-5.84806715 15.15193285 -5.84806715 15.15193285 -10 11 C-10.36395977 7.14202645 -10.56007535 4.84011302 -8.375 1.5625 C-5.26691612 -0.48229203 -3.68958057 -0.35787443 0 0 Z " fill="#FDD51B" transform="translate(60,126)"/>
<path d="M0 0 C2.9375 0.5625 2.9375 0.5625 5.3125 2.125 C7.54134688 5.46827032 7.25144977 7.59085252 6.9375 11.5625 C5.65576172 14.50927734 5.65576172 14.50927734 3.8671875 17.3984375 C3.2175 18.46320313 2.5678125 19.52796875 1.8984375 20.625 C0.86589844 22.2646875 0.86589844 22.2646875 -0.1875 23.9375 C-0.85265625 25.02289063 -1.5178125 26.10828125 -2.203125 27.2265625 C-12.59006486 44.09006486 -12.59006486 44.09006486 -16.0625 47.5625 C-19.95451406 47.99494601 -22.19480302 48.14096465 -25.5 45.9375 C-27.55981718 42.80657788 -27.4515622 41.28504933 -27.0625 37.5625 C-25.83014486 34.94254804 -24.58361033 32.60533948 -23.08203125 30.15234375 C-22.46723152 29.11745567 -22.46723152 29.11745567 -21.8400116 28.06166077 C-20.97276607 26.60823321 -20.09911092 25.15861335 -19.21948242 23.71264648 C-17.88240814 21.51219175 -16.567758 19.29952055 -15.25585938 17.08398438 C-14.4075492 15.66849141 -13.55798024 14.25375192 -12.70703125 12.83984375 C-12.12233818 11.85684547 -12.12233818 11.85684547 -11.52583313 10.85398865 C-5.50137901 1.01045737 -5.50137901 1.01045737 0 0 Z " fill="#F28C3E" transform="translate(356.0625,49.4375)"/>
</svg>
